<svg xmlns="http://www.w3.org/2000/svg" xmlns:xlink="http://www.w3.org/1999/xlink" viewBox="0 0 1366 768"><defs><linearGradient id="linear-gradient" x1="683" y1="102.73" x2="683" y2="531.29" gradientUnits="userSpaceOnUse"><stop offset="0" stop-color="#fff"/><stop offset="1"/></linearGradient><radialGradient id="Degradado_sin_nombre_27" cx="701.94" cy="98.39" r="476.07" gradientTransform="translate(-534.99 -653.3) scale(1.78 2.93)" gradientUnits="userSpaceOnUse"><stop offset="0" stop-color="#002d87"/><stop offset="0.18" stop-color="#002270"/><stop offset="0.53" stop-color="#001149"/><stop offset="0.81" stop-color="#000631"/><stop offset="0.98" stop-color="#000228"/></radialGradient><mask id="mask" x="-0.31" y="0.69" width="1366.62" height="767.62" maskUnits="userSpaceOnUse"><rect y="1" width="1366" height="767" fill="url(#linear-gradient)"/></mask><radialGradient id="Degradado_sin_nombre_4" cx="473.06" cy="20.64" r="49.57" gradientUnits="userSpaceOnUse"><stop offset="0" stop-color="#6559ee"/><stop offset="0.1" stop-color="#6559ee" stop-opacity="0.87"/><stop offset="0.35" stop-color="#6559ee" stop-opacity="0.57"/><stop offset="0.57" stop-color="#6559ee" stop-opacity="0.32"/><stop offset="0.76" stop-color="#6559ee" stop-opacity="0.15"/><stop offset="0.91" stop-color="#6559ee" stop-opacity="0.04"/><stop offset="1" stop-color="#6559ee" stop-opacity="0"/></radialGradient><radialGradient id="Degradado_sin_nombre_4-2" cx="225.39" cy="-2457.55" r="69.19" gradientTransform="translate(-78.51 246.65) scale(1.17 0.08)" xlink:href="#Degradado_sin_nombre_4"/><radialGradient id="Degradado_sin_nombre_4-3" cx="292.12" cy="-1939.17" r="69.19" gradientTransform="translate(-78.51 246.65) scale(1.17 0.08)" xlink:href="#Degradado_sin_nombre_4"/><radialGradient id="Degradado_sin_nombre_4-4" cx="894.66" cy="20.64" r="49.57" xlink:href="#Degradado_sin_nombre_4"/><radialGradient id="Degradado_sin_nombre_4-5" cx="926.13" cy="-2457.55" r="69.19" gradientTransform="translate(60.83 246.65) scale(1.17 0.08)" xlink:href="#Degradado_sin_nombre_4"/><radialGradient id="Degradado_sin_nombre_4-6" cx="992.86" cy="-1939.17" r="69.19" gradientTransform="translate(60.83 246.65) scale(1.17 0.08)" xlink:href="#Degradado_sin_nombre_4"/><linearGradient id="linear-gradient-2" x1="275.29" y1="-119.21" x2="291.48" y2="-119.21" gradientTransform="translate(1365.29 499.81) rotate(180)" gradientUnits="userSpaceOnUse"><stop offset="0" stop-color="#78c2cf"/><stop offset="0.18" stop-color="#78c2cf" stop-opacity="0.79"/><stop offset="0.47" stop-color="#78c2cf" stop-opacity="0.5"/><stop offset="0.71" stop-color="#78c2cf" stop-opacity="0.29"/><stop offset="0.89" stop-color="#78c2cf" stop-opacity="0.16"/><stop offset="1" stop-color="#78c2cf" stop-opacity="0.11"/></linearGradient><linearGradient id="linear-gradient-3" x1="793.52" y1="-119.21" x2="809.72" y2="-119.21" gradientTransform="matrix(1, 0, 0, -1, 296.47, 499.81)" xlink:href="#linear-gradient-2"/><linearGradient id="linear-gradient-4" x1="274.31" y1="-118.74" x2="305.65" y2="-118.74" xlink:href="#linear-gradient-2"/><linearGradient id="linear-gradient-5" x1="275.29" y1="-157.55" x2="286.8" y2="-157.55" xlink:href="#linear-gradient-2"/><linearGradient id="linear-gradient-6" x1="275.29" y1="-80.87" x2="286.8" y2="-80.87" xlink:href="#linear-gradient-2"/><linearGradient id="linear-gradient-7" x1="377.53" y1="723.98" x2="430.48" y2="671.03" gradientTransform="matrix(1, 0, 0, 1, 0, 0)" xlink:href="#linear-gradient-2"/><linearGradient id="linear-gradient-8" x1="1005.33" y1="567.48" x2="1059.4" y2="513.41" gradientTransform="matrix(1, 0, 0, 1, 0, 0)" xlink:href="#linear-gradient-2"/><linearGradient id="linear-gradient-9" x1="402.11" y1="539.92" x2="404.09" y2="537.94" gradientTransform="matrix(1, 0, 0, 1, 0, 0)" xlink:href="#linear-gradient-2"/><linearGradient id="linear-gradient-10" x1="1033.52" y1="697.31" x2="1035.52" y2="695.31" gradientTransform="matrix(1, 0, 0, 1, 0, 0)" xlink:href="#linear-gradient-2"/><linearGradient id="linear-gradient-11" x1="281.29" y1="-117.21" x2="297.48" y2="-117.21" gradientTransform="matrix(1, 0, 0, -1, 67.24, 499.81)" xlink:href="#linear-gradient-2"/><linearGradient id="linear-gradient-12" x1="787.52" y1="-117.21" x2="803.72" y2="-117.21" gradientTransform="translate(1136.05 499.81) rotate(180)" xlink:href="#linear-gradient-2"/><linearGradient id="linear-gradient-13" x1="280.31" y1="-116.74" x2="311.65" y2="-116.74" gradientTransform="matrix(1, 0, 0, -1, 67.24, 499.81)" xlink:href="#linear-gradient-2"/><linearGradient id="linear-gradient-14" x1="281.29" y1="-155.55" x2="292.8" y2="-155.55" gradientTransform="matrix(1, 0, 0, -1, 67.24, 499.81)" xlink:href="#linear-gradient-2"/><linearGradient id="linear-gradient-15" x1="281.29" y1="-78.87" x2="292.8" y2="-78.87" gradientTransform="matrix(1, 0, 0, -1, 67.24, 499.81)" xlink:href="#linear-gradient-2"/><linearGradient id="linear-gradient-16" x1="375.99" y1="518.26" x2="1060.32" y2="518.26" gradientTransform="matrix(1, 0, 0, 1, 0, 0)" xlink:href="#linear-gradient-2"/><linearGradient id="linear-gradient-17" x1="83.9" y1="-12.94" x2="768.23" y2="-12.94" gradientTransform="translate(1144.21 705.32) rotate(180)" xlink:href="#linear-gradient-2"/></defs><title>Artboard 1</title><g style="isolation:isolate"><g id="Layer_1" data-name="Layer 1"><rect x="1" y="-349" width="1366" height="2247" fill="url(#Degradado_sin_nombre_27)"/><g mask="url(#mask)"><g opacity="0.15" style="mix-blend-mode:overlay"><rect y="1" width="1366" height="767" fill="none" stroke="#fff" stroke-miterlimit="10" stroke-width="0.62"/><line y1="752.96" x2="1366" y2="752.96" fill="none" stroke="#fff" stroke-miterlimit="10" stroke-width="0.62"/><line y1="737.92" x2="1366" y2="737.92" fill="none" stroke="#fff" stroke-miterlimit="10" stroke-width="0.62"/><line y1="722.88" x2="1366" y2="722.88" fill="none" stroke="#fff" stroke-miterlimit="10" stroke-width="0.62"/><line y1="707.84" x2="1366" y2="707.84" fill="none" stroke="#fff" stroke-miterlimit="10" stroke-width="0.62"/><line y1="692.8" x2="1366" y2="692.8" fill="none" stroke="#fff" stroke-miterlimit="10" stroke-width="0.62"/><line y1="677.76" x2="1366" y2="677.76" fill="none" stroke="#fff" stroke-miterlimit="10" stroke-width="0.62"/><line y1="662.73" x2="1366" y2="662.73" fill="none" stroke="#fff" stroke-miterlimit="10" stroke-width="0.62"/><line y1="647.69" x2="1366" y2="647.69" fill="none" stroke="#fff" stroke-miterlimit="10" stroke-width="0.62"/><line y1="632.65" x2="1366" y2="632.65" fill="none" stroke="#fff" stroke-miterlimit="10" stroke-width="0.62"/><line y1="617.61" x2="1366" y2="617.61" fill="none" stroke="#fff" stroke-miterlimit="10" stroke-width="0.62"/><line y1="602.57" x2="1366" y2="602.57" fill="none" stroke="#fff" stroke-miterlimit="10" stroke-width="0.62"/><line y1="587.53" x2="1366" y2="587.53" fill="none" stroke="#fff" stroke-miterlimit="10" stroke-width="0.62"/><line y1="572.49" x2="1366" y2="572.49" fill="none" stroke="#fff" stroke-miterlimit="10" stroke-width="0.62"/><line y1="557.45" x2="1366" y2="557.45" fill="none" stroke="#fff" stroke-miterlimit="10" stroke-width="0.62"/><line y1="542.41" x2="1366" y2="542.41" fill="none" stroke="#fff" stroke-miterlimit="10" stroke-width="0.62"/><line y1="527.37" x2="1366" y2="527.37" fill="none" stroke="#fff" stroke-miterlimit="10" stroke-width="0.62"/><line y1="512.33" x2="1366" y2="512.33" fill="none" stroke="#fff" stroke-miterlimit="10" stroke-width="0.62"/><line y1="497.29" x2="1366" y2="497.29" fill="none" stroke="#fff" stroke-miterlimit="10" stroke-width="0.62"/><line y1="482.25" x2="1366" y2="482.25" fill="none" stroke="#fff" stroke-miterlimit="10" stroke-width="0.62"/><line y1="467.22" x2="1366" y2="467.22" fill="none" stroke="#fff" stroke-miterlimit="10" stroke-width="0.62"/><line y1="452.18" x2="1366" y2="452.18" fill="none" stroke="#fff" stroke-miterlimit="10" stroke-width="0.62"/><line y1="437.14" x2="1366" y2="437.14" fill="none" stroke="#fff" stroke-miterlimit="10" stroke-width="0.62"/><line y1="422.1" x2="1366" y2="422.1" fill="none" stroke="#fff" stroke-miterlimit="10" stroke-width="0.62"/><line y1="407.06" x2="1366" y2="407.06" fill="none" stroke="#fff" stroke-miterlimit="10" stroke-width="0.62"/><line y1="392.02" x2="1366" y2="392.02" fill="none" stroke="#fff" stroke-miterlimit="10" stroke-width="0.62"/><line y1="376.98" x2="1366" y2="376.98" fill="none" stroke="#fff" stroke-miterlimit="10" stroke-width="0.62"/><line y1="361.94" x2="1366" y2="361.94" fill="none" stroke="#fff" stroke-miterlimit="10" stroke-width="0.62"/><line y1="346.9" x2="1366" y2="346.9" fill="none" stroke="#fff" stroke-miterlimit="10" stroke-width="0.62"/><line y1="331.86" x2="1366" y2="331.86" fill="none" stroke="#fff" stroke-miterlimit="10" stroke-width="0.62"/><line y1="316.82" x2="1366" y2="316.82" fill="none" stroke="#fff" stroke-miterlimit="10" stroke-width="0.62"/><line y1="301.78" x2="1366" y2="301.78" fill="none" stroke="#fff" stroke-miterlimit="10" stroke-width="0.62"/><line y1="286.75" x2="1366" y2="286.75" fill="none" stroke="#fff" stroke-miterlimit="10" stroke-width="0.62"/><line y1="271.71" x2="1366" y2="271.71" fill="none" stroke="#fff" stroke-miterlimit="10" stroke-width="0.62"/><line y1="256.67" x2="1366" y2="256.67" fill="none" stroke="#fff" stroke-miterlimit="10" stroke-width="0.62"/><line y1="241.63" x2="1366" y2="241.63" fill="none" stroke="#fff" stroke-miterlimit="10" stroke-width="0.62"/><line y1="226.59" x2="1366" y2="226.59" fill="none" stroke="#fff" stroke-miterlimit="10" stroke-width="0.62"/><line y1="211.55" x2="1366" y2="211.55" fill="none" stroke="#fff" stroke-miterlimit="10" stroke-width="0.62"/><line y1="196.51" x2="1366" y2="196.51" fill="none" stroke="#fff" stroke-miterlimit="10" stroke-width="0.62"/><line y1="181.47" x2="1366" y2="181.47" fill="none" stroke="#fff" stroke-miterlimit="10" stroke-width="0.62"/><line y1="166.43" x2="1366" y2="166.43" fill="none" stroke="#fff" stroke-miterlimit="10" stroke-width="0.62"/><line y1="151.39" x2="1366" y2="151.39" fill="none" stroke="#fff" stroke-miterlimit="10" stroke-width="0.62"/><line y1="136.35" x2="1366" y2="136.35" fill="none" stroke="#fff" stroke-miterlimit="10" stroke-width="0.62"/><line y1="121.31" x2="1366" y2="121.31" fill="none" stroke="#fff" stroke-miterlimit="10" stroke-width="0.62"/><line y1="106.27" x2="1366" y2="106.27" fill="none" stroke="#fff" stroke-miterlimit="10" stroke-width="0.62"/><line y1="91.24" x2="1366" y2="91.24" fill="none" stroke="#fff" stroke-miterlimit="10" stroke-width="0.62"/><line y1="76.2" x2="1366" y2="76.2" fill="none" stroke="#fff" stroke-miterlimit="10" stroke-width="0.62"/><line y1="61.16" x2="1366" y2="61.16" fill="none" stroke="#fff" stroke-miterlimit="10" stroke-width="0.62"/><line y1="46.12" x2="1366" y2="46.12" fill="none" stroke="#fff" stroke-miterlimit="10" stroke-width="0.62"/><line y1="31.08" x2="1366" y2="31.08" fill="none" stroke="#fff" stroke-miterlimit="10" stroke-width="0.62"/><line y1="16.04" x2="1366" y2="16.04" fill="none" stroke="#fff" stroke-miterlimit="10" stroke-width="0.62"/><line x1="1339.22" y1="1" x2="1339.22" y2="768" fill="none" stroke="#fff" stroke-miterlimit="10" stroke-width="0.62"/><line x1="1312.43" y1="1" x2="1312.43" y2="768" fill="none" stroke="#fff" stroke-miterlimit="10" stroke-width="0.62"/><line x1="1285.65" y1="1" x2="1285.65" y2="768" fill="none" stroke="#fff" stroke-miterlimit="10" stroke-width="0.62"/><line x1="1258.86" y1="1" x2="1258.86" y2="768" fill="none" stroke="#fff" stroke-miterlimit="10" stroke-width="0.62"/><line x1="1232.08" y1="1" x2="1232.08" y2="768" fill="none" stroke="#fff" stroke-miterlimit="10" stroke-width="0.62"/><line x1="1205.29" y1="1" x2="1205.29" y2="768" fill="none" stroke="#fff" stroke-miterlimit="10" stroke-width="0.62"/><line x1="1178.51" y1="1" x2="1178.51" y2="768" fill="none" stroke="#fff" stroke-miterlimit="10" stroke-width="0.62"/><line x1="1151.73" y1="1" x2="1151.73" y2="768" fill="none" stroke="#fff" stroke-miterlimit="10" stroke-width="0.62"/><line x1="1124.94" y1="1" x2="1124.94" y2="768" fill="none" stroke="#fff" stroke-miterlimit="10" stroke-width="0.62"/><line x1="1098.16" y1="1" x2="1098.16" y2="768" fill="none" stroke="#fff" stroke-miterlimit="10" stroke-width="0.62"/><line x1="1071.37" y1="1" x2="1071.37" y2="768" fill="none" stroke="#fff" stroke-miterlimit="10" stroke-width="0.62"/><line x1="1044.59" y1="1" x2="1044.59" y2="768" fill="none" stroke="#fff" stroke-miterlimit="10" stroke-width="0.62"/><line x1="1017.8" y1="1" x2="1017.8" y2="768" fill="none" stroke="#fff" stroke-miterlimit="10" stroke-width="0.62"/><line x1="991.02" y1="1" x2="991.02" y2="768" fill="none" stroke="#fff" stroke-miterlimit="10" stroke-width="0.62"/><line x1="964.24" y1="1" x2="964.24" y2="768" fill="none" stroke="#fff" stroke-miterlimit="10" stroke-width="0.62"/><line x1="937.45" y1="1" x2="937.45" y2="768" fill="none" stroke="#fff" stroke-miterlimit="10" stroke-width="0.62"/><line x1="910.67" y1="1" x2="910.67" y2="768" fill="none" stroke="#fff" stroke-miterlimit="10" stroke-width="0.62"/><line x1="883.88" y1="1" x2="883.88" y2="768" fill="none" stroke="#fff" stroke-miterlimit="10" stroke-width="0.62"/><line x1="857.1" y1="1" x2="857.1" y2="768" fill="none" stroke="#fff" stroke-miterlimit="10" stroke-width="0.62"/><line x1="830.31" y1="1" x2="830.31" y2="768" fill="none" stroke="#fff" stroke-miterlimit="10" stroke-width="0.62"/><line x1="803.53" y1="1" x2="803.53" y2="768" fill="none" stroke="#fff" stroke-miterlimit="10" stroke-width="0.62"/><line x1="776.75" y1="1" x2="776.75" y2="768" fill="none" stroke="#fff" stroke-miterlimit="10" stroke-width="0.62"/><line x1="749.96" y1="1" x2="749.96" y2="768" fill="none" stroke="#fff" stroke-miterlimit="10" stroke-width="0.62"/><line x1="723.18" y1="1" x2="723.18" y2="768" fill="none" stroke="#fff" stroke-miterlimit="10" stroke-width="0.62"/><line x1="696.39" y1="1" x2="696.39" y2="768" fill="none" stroke="#fff" stroke-miterlimit="10" stroke-width="0.62"/><line x1="669.61" y1="1" x2="669.61" y2="768" fill="none" stroke="#fff" stroke-miterlimit="10" stroke-width="0.62"/><line x1="642.82" y1="1" x2="642.82" y2="768" fill="none" stroke="#fff" stroke-miterlimit="10" stroke-width="0.62"/><line x1="616.04" y1="1" x2="616.04" y2="768" fill="none" stroke="#fff" stroke-miterlimit="10" stroke-width="0.62"/><line x1="589.25" y1="1" x2="589.25" y2="768" fill="none" stroke="#fff" stroke-miterlimit="10" stroke-width="0.62"/><line x1="562.47" y1="1" x2="562.47" y2="768" fill="none" stroke="#fff" stroke-miterlimit="10" stroke-width="0.62"/><line x1="535.69" y1="1" x2="535.69" y2="768" fill="none" stroke="#fff" stroke-miterlimit="10" stroke-width="0.62"/><line x1="508.9" y1="1" x2="508.9" y2="768" fill="none" stroke="#fff" stroke-miterlimit="10" stroke-width="0.62"/><line x1="482.12" y1="1" x2="482.12" y2="768" fill="none" stroke="#fff" stroke-miterlimit="10" stroke-width="0.62"/><line x1="455.33" y1="1" x2="455.33" y2="768" fill="none" stroke="#fff" stroke-miterlimit="10" stroke-width="0.62"/><line x1="428.55" y1="1" x2="428.55" y2="768" fill="none" stroke="#fff" stroke-miterlimit="10" stroke-width="0.62"/><line x1="401.76" y1="1" x2="401.76" y2="768" fill="none" stroke="#fff" stroke-miterlimit="10" stroke-width="0.62"/><line x1="374.98" y1="1" x2="374.98" y2="768" fill="none" stroke="#fff" stroke-miterlimit="10" stroke-width="0.62"/><line x1="348.2" y1="1" x2="348.2" y2="768" fill="none" stroke="#fff" stroke-miterlimit="10" stroke-width="0.62"/><line x1="321.41" y1="1" x2="321.41" y2="768" fill="none" stroke="#fff" stroke-miterlimit="10" stroke-width="0.62"/><line x1="294.63" y1="1" x2="294.63" y2="768" fill="none" stroke="#fff" stroke-miterlimit="10" stroke-width="0.62"/><line x1="267.84" y1="1" x2="267.84" y2="768" fill="none" stroke="#fff" stroke-miterlimit="10" stroke-width="0.62"/><line x1="241.06" y1="1" x2="241.06" y2="768" fill="none" stroke="#fff" stroke-miterlimit="10" stroke-width="0.62"/><line x1="214.27" y1="1" x2="214.27" y2="768" fill="none" stroke="#fff" stroke-miterlimit="10" stroke-width="0.62"/><line x1="187.49" y1="1" x2="187.49" y2="768" fill="none" stroke="#fff" stroke-miterlimit="10" stroke-width="0.62"/><line x1="160.71" y1="1" x2="160.71" y2="768" fill="none" stroke="#fff" stroke-miterlimit="10" stroke-width="0.62"/><line x1="133.92" y1="1" x2="133.92" y2="768" fill="none" stroke="#fff" stroke-miterlimit="10" stroke-width="0.62"/><line x1="107.14" y1="1" x2="107.14" y2="768" fill="none" stroke="#fff" stroke-miterlimit="10" stroke-width="0.62"/><line x1="80.35" y1="1" x2="80.35" y2="768" fill="none" stroke="#fff" stroke-miterlimit="10" stroke-width="0.62"/><line x1="53.57" y1="1" x2="53.57" y2="768" fill="none" stroke="#fff" stroke-miterlimit="10" stroke-width="0.62"/><line x1="26.78" y1="1" x2="26.78" y2="768" fill="none" stroke="#fff" stroke-miterlimit="10" stroke-width="0.62"/></g></g></g><g id="Layer_2" data-name="Layer 2"><path d="M59.53,736.21a1.45,1.45,0,0,1-1.35-1.53V115.53a1.36,1.36,0,1,1,2.69,0V734.68A1.45,1.45,0,0,1,59.53,736.21Z" fill="#00feff"/><path d="M99.9,117.06H59.53a1.54,1.54,0,0,1,0-3.06H99.9a1.54,1.54,0,0,1,0,3.06Z" fill="#00feff"/><path d="M77.47,136.41H59.53a1.54,1.54,0,0,1,0-3.06H77.47a1.54,1.54,0,0,1,0,3.06Z" fill="#00feff"/><path d="M77.47,155.76H59.53a1.54,1.54,0,0,1,0-3.06H77.47a1.54,1.54,0,0,1,0,3.06Z" fill="#00feff"/><path d="M99.9,175.11H59.53a1.54,1.54,0,0,1,0-3.06H99.9a1.54,1.54,0,0,1,0,3.06Z" fill="#00feff"/><path d="M77.47,194.45H59.53a1.54,1.54,0,0,1,0-3.06H77.47a1.54,1.54,0,0,1,0,3.06Z" fill="#00feff"/><path d="M77.47,213.8H59.53a1.54,1.54,0,0,1,0-3.06H77.47a1.54,1.54,0,0,1,0,3.06Z" fill="#00feff"/><path d="M99.9,233.15H59.53a1.54,1.54,0,0,1,0-3.06H99.9a1.54,1.54,0,0,1,0,3.06Z" fill="#00feff"/><path d="M77.47,252.5H59.53a1.54,1.54,0,0,1,0-3.06H77.47a1.54,1.54,0,0,1,0,3.06Z" fill="#00feff"/><path d="M77.47,271.85H59.53a1.54,1.54,0,0,1,0-3.06H77.47a1.54,1.54,0,0,1,0,3.06Z" fill="#00feff"/><path d="M99.9,291.2H59.53a1.54,1.54,0,0,1,0-3.06H99.9a1.54,1.54,0,0,1,0,3.06Z" fill="#00feff"/><path d="M77.47,310.54H59.53a1.54,1.54,0,0,1,0-3.06H77.47a1.54,1.54,0,0,1,0,3.06Z" fill="#00feff"/><path d="M77.47,329.89H59.53a1.54,1.54,0,0,1,0-3.06H77.47a1.54,1.54,0,0,1,0,3.06Z" fill="#00feff"/><path d="M99.9,349.24H59.53a1.54,1.54,0,0,1,0-3.06H99.9a1.54,1.54,0,0,1,0,3.06Z" fill="#00feff"/><path d="M77.47,368.59H59.53a1.54,1.54,0,0,1,0-3.06H77.47a1.54,1.54,0,0,1,0,3.06Z" fill="#00feff"/><path d="M77.47,387.94H59.53a1.54,1.54,0,0,1,0-3.06H77.47a1.54,1.54,0,0,1,0,3.06Z" fill="#00feff"/><path d="M99.9,407.29H59.53a1.54,1.54,0,0,1,0-3.06H99.9a1.54,1.54,0,0,1,0,3.06Z" fill="#00feff"/><path d="M77.47,426.63H59.53a1.54,1.54,0,0,1,0-3.06H77.47a1.54,1.54,0,0,1,0,3.06Z" fill="#00feff"/><path d="M77.47,446H59.53a1.54,1.54,0,0,1,0-3.06H77.47a1.54,1.54,0,0,1,0,3.06Z" fill="#00feff"/><path d="M99.9,465.33H59.53a1.54,1.54,0,0,1,0-3.06H99.9a1.54,1.54,0,0,1,0,3.06Z" fill="#00feff"/><path d="M77.47,484.68H59.53a1.54,1.54,0,0,1,0-3.06H77.47a1.54,1.54,0,0,1,0,3.06Z" fill="#00feff"/><path d="M77.47,504H59.53a1.54,1.54,0,0,1,0-3.06H77.47a1.54,1.54,0,0,1,0,3.06Z" fill="#00feff"/><path d="M99.9,523.38H59.53a1.54,1.54,0,0,1,0-3.06H99.9a1.54,1.54,0,0,1,0,3.06Z" fill="#00feff"/><path d="M77.47,542.72H59.53a1.54,1.54,0,0,1,0-3.06H77.47a1.54,1.54,0,0,1,0,3.06Z" fill="#00feff"/><path d="M77.47,562.07H59.53a1.54,1.54,0,0,1,0-3.06H77.47a1.54,1.54,0,0,1,0,3.06Z" fill="#00feff"/><path d="M99.9,581.42H59.53a1.54,1.54,0,0,1,0-3.06H99.9a1.54,1.54,0,0,1,0,3.06Z" fill="#00feff"/><path d="M77.47,600.77H59.53a1.54,1.54,0,0,1,0-3.06H77.47a1.54,1.54,0,0,1,0,3.06Z" fill="#00feff"/><path d="M77.47,620.11H59.53a1.54,1.54,0,0,1,0-3.06H77.47a1.54,1.54,0,0,1,0,3.06Z" fill="#00feff"/><path d="M99.9,639.47H59.53a1.54,1.54,0,0,1,0-3.06H99.9a1.54,1.54,0,0,1,0,3.06Z" fill="#00feff"/><path d="M77.47,658.81H59.53a1.54,1.54,0,0,1,0-3.06H77.47a1.54,1.54,0,0,1,0,3.06Z" fill="#00feff"/><path d="M77.47,678.16H59.53a1.54,1.54,0,0,1,0-3.06H77.47a1.54,1.54,0,0,1,0,3.06Z" fill="#00feff"/><path d="M77.47,736.21H59.53a1.54,1.54,0,0,1,0-3.06H77.47a1.54,1.54,0,0,1,0,3.06Z" fill="#00feff"/><path d="M99.9,697.51H59.53a1.54,1.54,0,0,1,0-3.06H99.9a1.54,1.54,0,0,1,0,3.06Z" fill="#00feff"/><rect x="130.4" y="118.59" width="19.73" height="22.44" fill="#00feff" opacity="0.05"/><rect x="130.4" y="153.27" width="19.73" height="22.44" fill="#00feff" opacity="0.1"/><rect x="130.4" y="187.95" width="19.73" height="22.44" fill="#00feff" opacity="0.2"/><rect x="130.4" y="222.64" width="19.73" height="22.44" fill="#00feff" opacity="0.4"/><rect x="130.4" y="257.32" width="19.73" height="22.44" fill="#00feff" opacity="0.6"/><rect x="130.4" y="292" width="19.73" height="22.44" fill="#00feff" opacity="0.8"/><rect x="130.4" y="326.68" width="19.73" height="22.44" fill="#00feff"/><path d="M1310,736.21a1.45,1.45,0,0,1-1.35-1.53V115.53a1.36,1.36,0,1,1,2.69,0V734.68A1.45,1.45,0,0,1,1310,736.21Z" fill="#00feff"/><path d="M1310,117.06h-40.37a1.54,1.54,0,0,1,0-3.06H1310a1.54,1.54,0,0,1,0,3.06Z" fill="#00feff"/><path d="M1310,136.41H1292a1.54,1.54,0,0,1,0-3.06H1310a1.54,1.54,0,0,1,0,3.06Z" fill="#00feff"/><path d="M1310,155.76H1292a1.54,1.54,0,0,1,0-3.06H1310a1.54,1.54,0,0,1,0,3.06Z" fill="#00feff"/><path d="M1310,175.11h-40.37a1.54,1.54,0,0,1,0-3.06H1310a1.54,1.54,0,0,1,0,3.06Z" fill="#00feff"/><path d="M1310,194.45H1292a1.54,1.54,0,0,1,0-3.06H1310a1.54,1.54,0,0,1,0,3.06Z" fill="#00feff"/><path d="M1310,213.8H1292a1.54,1.54,0,0,1,0-3.06H1310a1.54,1.54,0,0,1,0,3.06Z" fill="#00feff"/><path d="M1310,233.15h-40.37a1.54,1.54,0,0,1,0-3.06H1310a1.54,1.54,0,0,1,0,3.06Z" fill="#00feff"/><path d="M1310,252.5H1292a1.54,1.54,0,0,1,0-3.06H1310a1.54,1.54,0,0,1,0,3.06Z" fill="#00feff"/><path d="M1310,271.85H1292a1.54,1.54,0,0,1,0-3.06H1310a1.54,1.54,0,0,1,0,3.06Z" fill="#00feff"/><path d="M1310,291.2h-40.37a1.54,1.54,0,0,1,0-3.06H1310a1.54,1.54,0,0,1,0,3.06Z" fill="#00feff"/><path d="M1310,310.54H1292a1.54,1.54,0,0,1,0-3.06H1310a1.54,1.54,0,0,1,0,3.06Z" fill="#00feff"/><path d="M1310,329.89H1292a1.54,1.54,0,0,1,0-3.06H1310a1.54,1.54,0,0,1,0,3.06Z" fill="#00feff"/><path d="M1310,349.24h-40.37a1.54,1.54,0,0,1,0-3.06H1310a1.54,1.54,0,0,1,0,3.06Z" fill="#00feff"/><path d="M1310,368.59H1292a1.54,1.54,0,0,1,0-3.06H1310a1.54,1.54,0,0,1,0,3.06Z" fill="#00feff"/><path d="M1310,387.94H1292a1.54,1.54,0,0,1,0-3.06H1310a1.54,1.54,0,0,1,0,3.06Z" fill="#00feff"/><path d="M1310,407.29h-40.37a1.54,1.54,0,0,1,0-3.06H1310a1.54,1.54,0,0,1,0,3.06Z" fill="#00feff"/><path d="M1310,426.63H1292a1.54,1.54,0,0,1,0-3.06H1310a1.54,1.54,0,0,1,0,3.06Z" fill="#00feff"/><path d="M1310,446H1292a1.54,1.54,0,0,1,0-3.06H1310a1.54,1.54,0,0,1,0,3.06Z" fill="#00feff"/><path d="M1310,465.33h-40.37a1.54,1.54,0,0,1,0-3.06H1310a1.54,1.54,0,0,1,0,3.06Z" fill="#00feff"/><path d="M1310,484.68H1292a1.54,1.54,0,0,1,0-3.06H1310a1.54,1.54,0,0,1,0,3.06Z" fill="#00feff"/><path d="M1310,504H1292a1.54,1.54,0,0,1,0-3.06H1310a1.54,1.54,0,0,1,0,3.06Z" fill="#00feff"/><path d="M1310,523.38h-40.37a1.54,1.54,0,0,1,0-3.06H1310a1.54,1.54,0,0,1,0,3.06Z" fill="#00feff"/><path d="M1310,542.72H1292a1.54,1.54,0,0,1,0-3.06H1310a1.54,1.54,0,0,1,0,3.06Z" fill="#00feff"/><path d="M1310,562.07H1292a1.54,1.54,0,0,1,0-3.06H1310a1.54,1.54,0,0,1,0,3.06Z" fill="#00feff"/><path d="M1310,581.42h-40.37a1.54,1.54,0,0,1,0-3.06H1310a1.54,1.54,0,0,1,0,3.06Z" fill="#00feff"/><path d="M1310,600.77H1292a1.54,1.54,0,0,1,0-3.06H1310a1.54,1.54,0,0,1,0,3.06Z" fill="#00feff"/><path d="M1310,620.11H1292a1.54,1.54,0,0,1,0-3.06H1310a1.54,1.54,0,0,1,0,3.06Z" fill="#00feff"/><path d="M1310,639.47h-40.37a1.54,1.54,0,0,1,0-3.06H1310a1.54,1.54,0,0,1,0,3.06Z" fill="#00feff"/><path d="M1310,658.81H1292a1.54,1.54,0,0,1,0-3.06H1310a1.54,1.54,0,0,1,0,3.06Z" fill="#00feff"/><path d="M1310,678.16H1292a1.54,1.54,0,0,1,0-3.06H1310a1.54,1.54,0,0,1,0,3.06Z" fill="#00feff"/><path d="M1310,736.21H1292a1.54,1.54,0,0,1,0-3.06H1310a1.54,1.54,0,0,1,0,3.06Z" fill="#00feff"/><path d="M1310,697.51h-40.37a1.54,1.54,0,0,1,0-3.06H1310a1.54,1.54,0,0,1,0,3.06Z" fill="#00feff"/><rect x="1218.93" y="118.59" width="19.73" height="22.44" fill="#00feff" opacity="0.05"/><rect x="1218.93" y="153.27" width="19.73" height="22.44" fill="#00feff" opacity="0.1"/><rect x="1218.93" y="187.95" width="19.73" height="22.44" fill="#00feff" opacity="0.2"/><rect x="1218.93" y="222.64" width="19.73" height="22.44" fill="#00feff" opacity="0.4"/><rect x="1218.93" y="257.32" width="19.73" height="22.44" fill="#00feff" opacity="0.6"/><rect x="1218.93" y="292" width="19.73" height="22.44" fill="#00feff" opacity="0.8"/><rect x="1218.93" y="326.68" width="19.73" height="22.44" fill="#00feff"/><circle cx="63.57" cy="51.59" r="7.4" fill="#00feff"/><circle cx="471.94" cy="19.97" r="7.4" fill="#00feff"/><polygon points="326.5 52.94 59.53 52.94 59.53 50.24 325.39 50.24 357.68 17.95 471.26 17.95 471.26 20.64 358.8 20.64 326.5 52.94" fill="#00feff"/><g opacity="0.6"><circle cx="63.57" cy="93.3" r="7.4" fill="#00feff"/><rect x="59.53" y="91.96" width="266.42" height="2.69" fill="#00feff"/></g><circle cx="473.06" cy="20.64" r="54.94" fill="url(#Degradado_sin_nombre_4)" style="mix-blend-mode:color-dodge"/><ellipse cx="185.11" cy="51.03" rx="89.7" ry="6.1" fill="url(#Degradado_sin_nombre_4-2)" style="mix-blend-mode:color-dodge"/><ellipse cx="263.15" cy="92.29" rx="89.7" ry="6.1" fill="url(#Degradado_sin_nombre_4-3)" style="mix-blend-mode:color-dodge"/><circle cx="1304.6" cy="51.59" r="7.4" fill="#00feff"/><circle cx="896.23" cy="19.97" r="7.4" fill="#00feff"/><polygon points="1308.64 52.94 1041.66 52.94 1009.37 20.64 896.9 20.64 896.9 17.95 1010.49 17.95 1042.78 50.24 1308.64 50.24 1308.64 52.94" fill="#00feff"/><g opacity="0.5"><circle cx="1304.6" cy="93.3" r="7.4" fill="#00feff"/><rect x="1042.22" y="91.96" width="266.42" height="2.69" fill="#00feff"/></g><circle cx="894.66" cy="20.64" r="54.94" fill="url(#Degradado_sin_nombre_4-4)" style="mix-blend-mode:color-dodge"/><ellipse cx="1144.03" cy="51.03" rx="89.7" ry="6.1" fill="url(#Degradado_sin_nombre_4-5)" style="mix-blend-mode:color-dodge"/><ellipse cx="1222.07" cy="92.29" rx="89.7" ry="6.1" fill="url(#Degradado_sin_nombre_4-6)" style="mix-blend-mode:color-dodge"/></g><g id="Layer_5" data-name="Layer 5"><polygon points="1090 695.7 1090 619.02 1090 542.35 1073.8 555.85 1073.8 619.02 1073.8 682.67 1090 695.7" opacity="0.5" fill="url(#linear-gradient-2)"/><polygon points="1090 695.7 1090 619.02 1090 542.35 1106.19 555.85 1106.19 619.02 1106.19 682.67 1090 695.7" opacity="0.5" fill="url(#linear-gradient-3)"/><polyline points="1060.6 725.1 1090 695.7 1090 541.66 1060.33 512" fill="none" stroke-miterlimit="10" stroke-width="1.96" stroke="url(#linear-gradient-4)"/><polygon points="1090 695.7 1090 657.36 1090 619.02 1078.49 629.43 1078.49 657.36 1078.49 685.3 1090 695.7" fill="url(#linear-gradient-5)"/><polygon points="1090 619.02 1090 580.68 1090 542.35 1078.49 552.75 1078.49 580.68 1078.49 608.62 1090 619.02" fill="url(#linear-gradient-6)"/><path d="M430.77,671.34C413,688.83,394.4,705.53,377.6,724" fill="none" stroke-miterlimit="10" stroke-width="1.96" stroke="url(#linear-gradient-7)"/><path d="M1059.28,513.31q-26.69,27.36-53.89,54.22" fill="none" stroke-miterlimit="10" stroke-width="1.96" stroke="url(#linear-gradient-8)"/><path d="M430,565.22c-17.87-17.55-36.53-34.34-53.38-52.91" fill="none" stroke-miterlimit="10" stroke-width="1.96" stroke="url(#linear-gradient-9)"/><path d="M1061.28,723c-17.1-18.54-35.9-35.38-53.8-53.11" fill="none" stroke-miterlimit="10" stroke-width="1.96" stroke="url(#linear-gradient-10)"/><polygon points="348.53 693.7 348.53 617.02 348.53 540.35 364.72 553.85 364.72 617.02 364.72 680.67 348.53 693.7" opacity="0.5" fill="url(#linear-gradient-11)"/><polygon points="348.53 693.7 348.53 617.02 348.53 540.35 332.33 553.85 332.33 617.02 332.33 680.67 348.53 693.7" opacity="0.5" fill="url(#linear-gradient-12)"/><polyline points="377.92 723.1 348.53 693.7 348.53 539.66 378.19 510" fill="none" stroke-miterlimit="10" stroke-width="1.96" stroke="url(#linear-gradient-13)"/><polygon points="348.53 693.7 348.53 655.36 348.53 617.02 360.04 627.43 360.04 655.36 360.04 683.3 348.53 693.7" fill="url(#linear-gradient-14)"/><polygon points="348.53 617.02 348.53 578.68 348.53 540.35 360.04 550.75 360.04 578.68 360.04 606.62 348.53 617.02" fill="url(#linear-gradient-15)"/><polyline points="1060.32 513 763.26 513 718.15 523.49 673.04 513 375.99 513" fill="none" stroke-miterlimit="10" stroke-width="1.96" stroke="url(#linear-gradient-16)"/><polyline points="375.99 723.52 673.04 723.52 718.15 713.02 763.26 723.52 1060.32 723.52" fill="none" stroke-miterlimit="10" stroke-width="1.96" stroke="url(#linear-gradient-17)"/><line x1="647.82" y1="523.49" x2="647.82" y2="515.94" fill="none" stroke="#19c4f2" stroke-miterlimit="10"/><line x1="629.93" y1="523.49" x2="629.93" y2="515.94" fill="none" stroke="#19c4f2" stroke-miterlimit="10"/><line x1="612.04" y1="523.49" x2="612.04" y2="515.94" fill="none" stroke="#19c4f2" stroke-miterlimit="10"/><line x1="594.15" y1="523.49" x2="594.15" y2="515.94" fill="none" stroke="#19c4f2" stroke-miterlimit="10"/><line x1="576.26" y1="523.49" x2="576.26" y2="515.94" fill="none" stroke="#19c4f2" stroke-miterlimit="10"/><line x1="558.37" y1="523.49" x2="558.37" y2="515.94" fill="none" stroke="#19c4f2" stroke-miterlimit="10"/><line x1="540.48" y1="523.49" x2="540.48" y2="515.94" fill="none" stroke="#19c4f2" stroke-miterlimit="10"/><line x1="522.59" y1="523.49" x2="522.59" y2="515.94" fill="none" stroke="#19c4f2" stroke-miterlimit="10"/><line x1="504.7" y1="523.49" x2="504.7" y2="515.94" fill="none" stroke="#19c4f2" stroke-miterlimit="10"/><line x1="486.81" y1="523.49" x2="486.81" y2="515.94" fill="none" stroke="#19c4f2" stroke-miterlimit="10"/><line x1="468.91" y1="523.49" x2="468.91" y2="515.94" fill="none" stroke="#19c4f2" stroke-miterlimit="10"/><line x1="451.02" y1="523.49" x2="451.02" y2="515.94" fill="none" stroke="#19c4f2" stroke-miterlimit="10"/><line x1="433.13" y1="523.49" x2="433.13" y2="515.94" fill="none" stroke="#19c4f2" stroke-miterlimit="10"/><line x1="415.24" y1="523.49" x2="415.24" y2="515.94" fill="none" stroke="#19c4f2" stroke-miterlimit="10"/><line x1="788.49" y1="523.49" x2="788.49" y2="515.94" fill="none" stroke="#19c4f2" stroke-miterlimit="10"/><line x1="806.38" y1="523.49" x2="806.38" y2="515.94" fill="none" stroke="#19c4f2" stroke-miterlimit="10"/><line x1="824.27" y1="523.49" x2="824.27" y2="515.94" fill="none" stroke="#19c4f2" stroke-miterlimit="10"/><line x1="842.16" y1="523.49" x2="842.16" y2="515.94" fill="none" stroke="#19c4f2" stroke-miterlimit="10"/><line x1="860.05" y1="523.49" x2="860.05" y2="515.94" fill="none" stroke="#19c4f2" stroke-miterlimit="10"/><line x1="877.94" y1="523.49" x2="877.94" y2="515.94" fill="none" stroke="#19c4f2" stroke-miterlimit="10"/><line x1="895.83" y1="523.49" x2="895.83" y2="515.94" fill="none" stroke="#19c4f2" stroke-miterlimit="10"/><line x1="913.72" y1="523.49" x2="913.72" y2="515.94" fill="none" stroke="#19c4f2" stroke-miterlimit="10"/><line x1="931.61" y1="523.49" x2="931.61" y2="515.94" fill="none" stroke="#19c4f2" stroke-miterlimit="10"/><line x1="949.5" y1="523.49" x2="949.5" y2="515.94" fill="none" stroke="#19c4f2" stroke-miterlimit="10"/><line x1="967.39" y1="523.49" x2="967.39" y2="515.94" fill="none" stroke="#19c4f2" stroke-miterlimit="10"/><line x1="985.28" y1="523.49" x2="985.28" y2="515.94" fill="none" stroke="#19c4f2" stroke-miterlimit="10"/><line x1="1003.17" y1="523.49" x2="1003.17" y2="515.94" fill="none" stroke="#19c4f2" stroke-miterlimit="10"/><line x1="1021.06" y1="523.49" x2="1021.06" y2="515.94" fill="none" stroke="#19c4f2" stroke-miterlimit="10"/></g></g></svg>