<svg xmlns="http://www.w3.org/2000/svg" xmlns:xlink="http://www.w3.org/1999/xlink" viewBox="0 0 1366 768"><defs><linearGradient id="linear-gradient" x1="683" y1="108.73" x2="683" y2="537.29" gradientUnits="userSpaceOnUse"><stop offset="0" stop-color="#fff"/><stop offset="1"/></linearGradient><radialGradient id="Degradado_sin_nombre_27" cx="701.38" cy="98.39" r="476.07" gradientTransform="translate(-534.99 -653.3) scale(1.78 2.93)" gradientUnits="userSpaceOnUse"><stop offset="0" stop-color="#002d87"/><stop offset="0.18" stop-color="#002270"/><stop offset="0.53" stop-color="#001149"/><stop offset="0.81" stop-color="#000631"/><stop offset="0.98" stop-color="#000228"/></radialGradient><mask id="mask" x="-0.31" y="6.69" width="1366.62" height="767.62" maskUnits="userSpaceOnUse"><rect y="7" width="1366" height="767" fill="url(#linear-gradient)"/></mask></defs><title>Artboard 1</title><g style="isolation:isolate"><g id="Layer_1" data-name="Layer 1"><rect y="-349" width="1366" height="2247" fill="url(#Degradado_sin_nombre_27)"/><g mask="url(#mask)"><g opacity="0.2" style="mix-blend-mode:overlay"><rect y="7" width="1366" height="767" fill="none" stroke="#fff" stroke-miterlimit="10" stroke-width="0.62"/><line y1="758.96" x2="1366" y2="758.96" fill="none" stroke="#fff" stroke-miterlimit="10" stroke-width="0.62"/><line y1="743.92" x2="1366" y2="743.92" fill="none" stroke="#fff" stroke-miterlimit="10" stroke-width="0.62"/><line y1="728.88" x2="1366" y2="728.88" fill="none" stroke="#fff" stroke-miterlimit="10" stroke-width="0.62"/><line y1="713.84" x2="1366" y2="713.84" fill="none" stroke="#fff" stroke-miterlimit="10" stroke-width="0.62"/><line y1="698.8" x2="1366" y2="698.8" fill="none" stroke="#fff" stroke-miterlimit="10" stroke-width="0.62"/><line y1="683.76" x2="1366" y2="683.76" fill="none" stroke="#fff" stroke-miterlimit="10" stroke-width="0.62"/><line y1="668.73" x2="1366" y2="668.73" fill="none" stroke="#fff" stroke-miterlimit="10" stroke-width="0.62"/><line y1="653.69" x2="1366" y2="653.69" fill="none" stroke="#fff" stroke-miterlimit="10" stroke-width="0.62"/><line y1="638.65" x2="1366" y2="638.65" fill="none" stroke="#fff" stroke-miterlimit="10" stroke-width="0.62"/><line y1="623.61" x2="1366" y2="623.61" fill="none" stroke="#fff" stroke-miterlimit="10" stroke-width="0.62"/><line y1="608.57" x2="1366" y2="608.57" fill="none" stroke="#fff" stroke-miterlimit="10" stroke-width="0.62"/><line y1="593.53" x2="1366" y2="593.53" fill="none" stroke="#fff" stroke-miterlimit="10" stroke-width="0.62"/><line y1="578.49" x2="1366" y2="578.49" fill="none" stroke="#fff" stroke-miterlimit="10" stroke-width="0.62"/><line y1="563.45" x2="1366" y2="563.45" fill="none" stroke="#fff" stroke-miterlimit="10" stroke-width="0.62"/><line y1="548.41" x2="1366" y2="548.41" fill="none" stroke="#fff" stroke-miterlimit="10" stroke-width="0.62"/><line y1="533.37" x2="1366" y2="533.37" fill="none" stroke="#fff" stroke-miterlimit="10" stroke-width="0.62"/><line y1="518.33" x2="1366" y2="518.33" fill="none" stroke="#fff" stroke-miterlimit="10" stroke-width="0.62"/><line y1="503.29" x2="1366" y2="503.29" fill="none" stroke="#fff" stroke-miterlimit="10" stroke-width="0.62"/><line y1="488.25" x2="1366" y2="488.25" fill="none" stroke="#fff" stroke-miterlimit="10" stroke-width="0.62"/><line y1="473.22" x2="1366" y2="473.22" fill="none" stroke="#fff" stroke-miterlimit="10" stroke-width="0.62"/><line y1="458.18" x2="1366" y2="458.18" fill="none" stroke="#fff" stroke-miterlimit="10" stroke-width="0.62"/><line y1="443.14" x2="1366" y2="443.14" fill="none" stroke="#fff" stroke-miterlimit="10" stroke-width="0.62"/><line y1="428.1" x2="1366" y2="428.1" fill="none" stroke="#fff" stroke-miterlimit="10" stroke-width="0.62"/><line y1="413.06" x2="1366" y2="413.06" fill="none" stroke="#fff" stroke-miterlimit="10" stroke-width="0.62"/><line y1="398.02" x2="1366" y2="398.02" fill="none" stroke="#fff" stroke-miterlimit="10" stroke-width="0.62"/><line y1="382.98" x2="1366" y2="382.98" fill="none" stroke="#fff" stroke-miterlimit="10" stroke-width="0.62"/><line y1="367.94" x2="1366" y2="367.94" fill="none" stroke="#fff" stroke-miterlimit="10" stroke-width="0.62"/><line y1="352.9" x2="1366" y2="352.9" fill="none" stroke="#fff" stroke-miterlimit="10" stroke-width="0.62"/><line y1="337.86" x2="1366" y2="337.86" fill="none" stroke="#fff" stroke-miterlimit="10" stroke-width="0.62"/><line y1="322.82" x2="1366" y2="322.82" fill="none" stroke="#fff" stroke-miterlimit="10" stroke-width="0.62"/><line y1="307.78" x2="1366" y2="307.78" fill="none" stroke="#fff" stroke-miterlimit="10" stroke-width="0.62"/><line y1="292.75" x2="1366" y2="292.75" fill="none" stroke="#fff" stroke-miterlimit="10" stroke-width="0.62"/><line y1="277.71" x2="1366" y2="277.71" fill="none" stroke="#fff" stroke-miterlimit="10" stroke-width="0.62"/><line y1="262.67" x2="1366" y2="262.67" fill="none" stroke="#fff" stroke-miterlimit="10" stroke-width="0.62"/><line y1="247.63" x2="1366" y2="247.63" fill="none" stroke="#fff" stroke-miterlimit="10" stroke-width="0.62"/><line y1="232.59" x2="1366" y2="232.59" fill="none" stroke="#fff" stroke-miterlimit="10" stroke-width="0.62"/><line y1="217.55" x2="1366" y2="217.55" fill="none" stroke="#fff" stroke-miterlimit="10" stroke-width="0.62"/><line y1="202.51" x2="1366" y2="202.51" fill="none" stroke="#fff" stroke-miterlimit="10" stroke-width="0.62"/><line y1="187.47" x2="1366" y2="187.47" fill="none" stroke="#fff" stroke-miterlimit="10" stroke-width="0.62"/><line y1="172.43" x2="1366" y2="172.43" fill="none" stroke="#fff" stroke-miterlimit="10" stroke-width="0.62"/><line y1="157.39" x2="1366" y2="157.39" fill="none" stroke="#fff" stroke-miterlimit="10" stroke-width="0.62"/><line y1="142.35" x2="1366" y2="142.35" fill="none" stroke="#fff" stroke-miterlimit="10" stroke-width="0.62"/><line y1="127.31" x2="1366" y2="127.31" fill="none" stroke="#fff" stroke-miterlimit="10" stroke-width="0.62"/><line y1="112.27" x2="1366" y2="112.27" fill="none" stroke="#fff" stroke-miterlimit="10" stroke-width="0.62"/><line y1="97.24" x2="1366" y2="97.24" fill="none" stroke="#fff" stroke-miterlimit="10" stroke-width="0.62"/><line y1="82.2" x2="1366" y2="82.2" fill="none" stroke="#fff" stroke-miterlimit="10" stroke-width="0.62"/><line y1="67.16" x2="1366" y2="67.16" fill="none" stroke="#fff" stroke-miterlimit="10" stroke-width="0.62"/><line y1="52.12" x2="1366" y2="52.12" fill="none" stroke="#fff" stroke-miterlimit="10" stroke-width="0.62"/><line y1="37.08" x2="1366" y2="37.08" fill="none" stroke="#fff" stroke-miterlimit="10" stroke-width="0.62"/><line y1="22.04" x2="1366" y2="22.04" fill="none" stroke="#fff" stroke-miterlimit="10" stroke-width="0.62"/><line x1="1339.22" y1="7" x2="1339.22" y2="774" fill="none" stroke="#fff" stroke-miterlimit="10" stroke-width="0.62"/><line x1="1312.43" y1="7" x2="1312.43" y2="774" fill="none" stroke="#fff" stroke-miterlimit="10" stroke-width="0.62"/><line x1="1285.65" y1="7" x2="1285.65" y2="774" fill="none" stroke="#fff" stroke-miterlimit="10" stroke-width="0.62"/><line x1="1258.86" y1="7" x2="1258.86" y2="774" fill="none" stroke="#fff" stroke-miterlimit="10" stroke-width="0.62"/><line x1="1232.08" y1="7" x2="1232.08" y2="774" fill="none" stroke="#fff" stroke-miterlimit="10" stroke-width="0.62"/><line x1="1205.29" y1="7" x2="1205.29" y2="774" fill="none" stroke="#fff" stroke-miterlimit="10" stroke-width="0.62"/><line x1="1178.51" y1="7" x2="1178.51" y2="774" fill="none" stroke="#fff" stroke-miterlimit="10" stroke-width="0.62"/><line x1="1151.73" y1="7" x2="1151.73" y2="774" fill="none" stroke="#fff" stroke-miterlimit="10" stroke-width="0.62"/><line x1="1124.94" y1="7" x2="1124.94" y2="774" fill="none" stroke="#fff" stroke-miterlimit="10" stroke-width="0.62"/><line x1="1098.16" y1="7" x2="1098.16" y2="774" fill="none" stroke="#fff" stroke-miterlimit="10" stroke-width="0.62"/><line x1="1071.37" y1="7" x2="1071.37" y2="774" fill="none" stroke="#fff" stroke-miterlimit="10" stroke-width="0.62"/><line x1="1044.59" y1="7" x2="1044.59" y2="774" fill="none" stroke="#fff" stroke-miterlimit="10" stroke-width="0.62"/><line x1="1017.8" y1="7" x2="1017.8" y2="774" fill="none" stroke="#fff" stroke-miterlimit="10" stroke-width="0.62"/><line x1="991.02" y1="7" x2="991.02" y2="774" fill="none" stroke="#fff" stroke-miterlimit="10" stroke-width="0.62"/><line x1="964.24" y1="7" x2="964.24" y2="774" fill="none" stroke="#fff" stroke-miterlimit="10" stroke-width="0.62"/><line x1="937.45" y1="7" x2="937.45" y2="774" fill="none" stroke="#fff" stroke-miterlimit="10" stroke-width="0.62"/><line x1="910.67" y1="7" x2="910.67" y2="774" fill="none" stroke="#fff" stroke-miterlimit="10" stroke-width="0.62"/><line x1="883.88" y1="7" x2="883.88" y2="774" fill="none" stroke="#fff" stroke-miterlimit="10" stroke-width="0.62"/><line x1="857.1" y1="7" x2="857.1" y2="774" fill="none" stroke="#fff" stroke-miterlimit="10" stroke-width="0.62"/><line x1="830.31" y1="7" x2="830.31" y2="774" fill="none" stroke="#fff" stroke-miterlimit="10" stroke-width="0.62"/><line x1="803.53" y1="7" x2="803.53" y2="774" fill="none" stroke="#fff" stroke-miterlimit="10" stroke-width="0.62"/><line x1="776.75" y1="7" x2="776.75" y2="774" fill="none" stroke="#fff" stroke-miterlimit="10" stroke-width="0.62"/><line x1="749.96" y1="7" x2="749.96" y2="774" fill="none" stroke="#fff" stroke-miterlimit="10" stroke-width="0.62"/><line x1="723.18" y1="7" x2="723.18" y2="774" fill="none" stroke="#fff" stroke-miterlimit="10" stroke-width="0.62"/><line x1="696.39" y1="7" x2="696.39" y2="774" fill="none" stroke="#fff" stroke-miterlimit="10" stroke-width="0.62"/><line x1="669.61" y1="7" x2="669.61" y2="774" fill="none" stroke="#fff" stroke-miterlimit="10" stroke-width="0.62"/><line x1="642.82" y1="7" x2="642.82" y2="774" fill="none" stroke="#fff" stroke-miterlimit="10" stroke-width="0.62"/><line x1="616.04" y1="7" x2="616.04" y2="774" fill="none" stroke="#fff" stroke-miterlimit="10" stroke-width="0.62"/><line x1="589.25" y1="7" x2="589.25" y2="774" fill="none" stroke="#fff" stroke-miterlimit="10" stroke-width="0.62"/><line x1="562.47" y1="7" x2="562.47" y2="774" fill="none" stroke="#fff" stroke-miterlimit="10" stroke-width="0.62"/><line x1="535.69" y1="7" x2="535.69" y2="774" fill="none" stroke="#fff" stroke-miterlimit="10" stroke-width="0.62"/><line x1="508.9" y1="7" x2="508.9" y2="774" fill="none" stroke="#fff" stroke-miterlimit="10" stroke-width="0.62"/><line x1="482.12" y1="7" x2="482.12" y2="774" fill="none" stroke="#fff" stroke-miterlimit="10" stroke-width="0.62"/><line x1="455.33" y1="7" x2="455.33" y2="774" fill="none" stroke="#fff" stroke-miterlimit="10" stroke-width="0.62"/><line x1="428.55" y1="7" x2="428.55" y2="774" fill="none" stroke="#fff" stroke-miterlimit="10" stroke-width="0.62"/><line x1="401.76" y1="7" x2="401.76" y2="774" fill="none" stroke="#fff" stroke-miterlimit="10" stroke-width="0.62"/><line x1="374.98" y1="7" x2="374.98" y2="774" fill="none" stroke="#fff" stroke-miterlimit="10" stroke-width="0.62"/><line x1="348.2" y1="7" x2="348.2" y2="774" fill="none" stroke="#fff" stroke-miterlimit="10" stroke-width="0.62"/><line x1="321.41" y1="7" x2="321.41" y2="774" fill="none" stroke="#fff" stroke-miterlimit="10" stroke-width="0.62"/><line x1="294.63" y1="7" x2="294.63" y2="774" fill="none" stroke="#fff" stroke-miterlimit="10" stroke-width="0.62"/><line x1="267.84" y1="7" x2="267.84" y2="774" fill="none" stroke="#fff" stroke-miterlimit="10" stroke-width="0.62"/><line x1="241.06" y1="7" x2="241.06" y2="774" fill="none" stroke="#fff" stroke-miterlimit="10" stroke-width="0.62"/><line x1="214.27" y1="7" x2="214.27" y2="774" fill="none" stroke="#fff" stroke-miterlimit="10" stroke-width="0.62"/><line x1="187.49" y1="7" x2="187.49" y2="774" fill="none" stroke="#fff" stroke-miterlimit="10" stroke-width="0.62"/><line x1="160.71" y1="7" x2="160.71" y2="774" fill="none" stroke="#fff" stroke-miterlimit="10" stroke-width="0.62"/><line x1="133.92" y1="7" x2="133.92" y2="774" fill="none" stroke="#fff" stroke-miterlimit="10" stroke-width="0.62"/><line x1="107.14" y1="7" x2="107.14" y2="774" fill="none" stroke="#fff" stroke-miterlimit="10" stroke-width="0.62"/><line x1="80.35" y1="7" x2="80.35" y2="774" fill="none" stroke="#fff" stroke-miterlimit="10" stroke-width="0.62"/><line x1="53.57" y1="7" x2="53.57" y2="774" fill="none" stroke="#fff" stroke-miterlimit="10" stroke-width="0.62"/><line x1="26.78" y1="7" x2="26.78" y2="774" fill="none" stroke="#fff" stroke-miterlimit="10" stroke-width="0.62"/></g></g></g></g></svg>