<svg id="Layer_1" data-name="Layer 1" xmlns="http://www.w3.org/2000/svg" viewBox="0 0 1445 369">
<title>Artboard 1</title>
<polyline points="1378.99 365.32 1435.18 315.53 1435.18 54.57 1378.47 4.31" fill="none" stroke="#00feff" stroke-miterlimit="10" stroke-width="3"/><polygon points="1433.3 318.92 1433.3 253.97 1433.3 189.01 1411.29 206.64 1411.29 253.97 1411.29 301.29 1433.3 318.92" fill="#00feff"/><polygon points="1433.3 189.01 1433.3 124.06 1433.3 59.11 1411.29 76.73 1411.29 124.06 1411.29 171.39 1433.3 189.01" fill="#00feff"/><path d="M1375.49,365.14c-21.89-21.28-46-40.61-68.88-61" fill="none" stroke="#00feff" stroke-miterlimit="10" stroke-width="3"/><polyline points="1377.47 4.31 809.55 4.31 723.29 22.09 637.04 4.31 69.12 4.31" fill="none" stroke="#00feff" stroke-miterlimit="10" stroke-width="3"/><polyline points="71.03 366.04 638.96 366.04 725.21 348.26 811.46 366.04 1379.38 366.04" fill="none" stroke="#00feff" stroke-miterlimit="10" stroke-width="3"/><line x1="535.85" y1="21.04" x2="535.85" y2="3.57" fill="none" stroke="#19c4f2" stroke-miterlimit="10" stroke-width="3"/><line x1="349.03" y1="21.04" x2="349.03" y2="3.57" fill="none" stroke="#19c4f2" stroke-miterlimit="10" stroke-width="3"/><line x1="162.21" y1="21.04" x2="162.21" y2="3.57" fill="none" stroke="#19c4f2" stroke-miterlimit="10" stroke-width="3"/><line x1="903.09" y1="21.04" x2="903.09" y2="3.57" fill="none" stroke="#19c4f2" stroke-miterlimit="10" stroke-width="3"/><line x1="1089.91" y1="21.04" x2="1089.91" y2="3.57" fill="none" stroke="#19c4f2" stroke-miterlimit="10" stroke-width="3"/><line x1="1276.74" y1="21.04" x2="1276.74" y2="3.57" fill="none" stroke="#19c4f2" stroke-miterlimit="10" stroke-width="3"/><path d="M17.16,51.62c18.29-15.92,37.4-31.14,54.64-48" fill="none" stroke="#00feff" stroke-miterlimit="10" stroke-width="3"/><path d="M71.56,366.94c-18-16.21-35.15-33.14-54.16-48.42" fill="none" stroke="#00feff" stroke-miterlimit="10" stroke-width="3"/><path d="M140.5,63.58c-21.89-21.28-46-40.61-68.88-61" fill="none" stroke="#00feff" stroke-miterlimit="10" stroke-width="3"/><path d="M133.11,296.78c-21.25,21.92-40.55,46-60.88,69" fill="none" stroke="#00feff" stroke-miterlimit="10" stroke-width="3"/><path d="M1378.26,2c-21.25,21.92-40.55,46-60.88,69" fill="none" stroke="#00feff" stroke-miterlimit="10" stroke-width="3"/></svg>