<svg id="Layer_1" data-name="Layer 1" xmlns="http://www.w3.org/2000/svg" viewBox="0 0 1445 370"><title>Artboard 1</title><line x1="1451" y1="7.23" x2="135.46" y2="7.23" fill="#03080b"/><polyline points="62.64 367.3 5.71 316.93 5.71 52.93 63.16 2.08" fill="none" stroke="#00feff" stroke-miterlimit="10" stroke-width="3"/><polygon points="8.62 320.36 8.62 254.65 8.62 188.94 30.91 206.77 30.91 254.65 30.91 302.53 8.62 320.36" fill="#00feff"/><polygon points="8.62 188.94 8.62 123.23 8.62 57.52 30.91 75.35 30.91 123.23 30.91 171.11 8.62 188.94" fill="#00feff"/><path d="M66.18,367.12C88.35,345.59,112.74,326,136,305.44" fill="none" stroke="#00feff" stroke-miterlimit="10" stroke-width="3"/><polyline points="64.17 2.08 639.51 2.08 726.89 20.07 814.27 2.08 1389.62 2.08" fill="none" stroke="#00feff" stroke-miterlimit="10" stroke-width="3"/><polyline points="1387.68 368.03 812.34 368.03 724.96 350.04 637.58 368.03 62.23 368.03" fill="none" stroke="#00feff" stroke-miterlimit="10" stroke-width="3"/><line x1="916.79" y1="19.01" x2="916.79" y2="1.33" fill="none" stroke="#19c4f2" stroke-miterlimit="10" stroke-width="3"/><line x1="1106.05" y1="19.01" x2="1106.05" y2="1.33" fill="none" stroke="#19c4f2" stroke-miterlimit="10" stroke-width="3"/><line x1="1295.31" y1="19.01" x2="1295.31" y2="1.33" fill="none" stroke="#19c4f2" stroke-miterlimit="10" stroke-width="3"/><line x1="544.75" y1="19.01" x2="544.75" y2="1.33" fill="none" stroke="#19c4f2" stroke-miterlimit="10" stroke-width="3"/><line x1="355.49" y1="19.01" x2="355.49" y2="1.33" fill="none" stroke="#19c4f2" stroke-miterlimit="10" stroke-width="3"/><line x1="166.22" y1="19.01" x2="166.22" y2="1.33" fill="none" stroke="#19c4f2" stroke-miterlimit="10" stroke-width="3"/><path d="M1442.26,49.95c-18.53-16.11-37.88-31.51-55.35-48.55" fill="none" stroke="#00feff" stroke-miterlimit="10" stroke-width="3"/><path d="M1387.15,368.94c18.2-16.4,35.61-33.52,54.87-49" fill="none" stroke="#00feff" stroke-miterlimit="10" stroke-width="3"/><path d="M1317.3,62C1339.48,40.52,1363.86,21,1387.09.37" fill="none" stroke="#00feff" stroke-miterlimit="10" stroke-width="3"/><path d="M1329.93,298c21.53,22.18,41.08,46.56,61.68,69.78" fill="none" stroke="#00feff" stroke-miterlimit="10" stroke-width="3"/><path d="M63.38-.25c21.53,22.18,41.08,46.56,61.68,69.78" fill="none" stroke="#00feff" stroke-miterlimit="10" stroke-width="3"/></svg>