<svg xmlns="http://www.w3.org/2000/svg" xmlns:xlink="http://www.w3.org/1999/xlink" viewBox="0 0 1366 768"><defs><linearGradient id="linear-gradient" x1="683" y1="108.73" x2="683" y2="537.29" gradientUnits="userSpaceOnUse"><stop offset="0" stop-color="#fff"/><stop offset="1"/></linearGradient><radialGradient id="Degradado_sin_nombre_27" cx="701.38" cy="98.39" r="476.07" gradientTransform="translate(-534.99 -653.3) scale(1.78 2.93)" gradientUnits="userSpaceOnUse"><stop offset="0" stop-color="#002d87"/><stop offset="0.18" stop-color="#002270"/><stop offset="0.53" stop-color="#001149"/><stop offset="0.81" stop-color="#000631"/><stop offset="0.98" stop-color="#000228"/></radialGradient><mask id="mask" x="-0.31" y="6.69" width="1366.62" height="767.62" maskUnits="userSpaceOnUse"><rect y="7" width="1366" height="767" fill="url(#linear-gradient)"/></mask><radialGradient id="Degradado_sin_nombre_4" cx="473.06" cy="20.64" r="49.57" gradientUnits="userSpaceOnUse"><stop offset="0" stop-color="#6559ee"/><stop offset="0.1" stop-color="#6559ee" stop-opacity="0.87"/><stop offset="0.35" stop-color="#6559ee" stop-opacity="0.57"/><stop offset="0.57" stop-color="#6559ee" stop-opacity="0.32"/><stop offset="0.76" stop-color="#6559ee" stop-opacity="0.15"/><stop offset="0.91" stop-color="#6559ee" stop-opacity="0.04"/><stop offset="1" stop-color="#6559ee" stop-opacity="0"/></radialGradient><radialGradient id="Degradado_sin_nombre_4-2" cx="225.39" cy="-2457.55" r="69.19" gradientTransform="translate(-78.51 246.65) scale(1.17 0.08)" xlink:href="#Degradado_sin_nombre_4"/><radialGradient id="Degradado_sin_nombre_4-3" cx="292.12" cy="-1939.17" r="69.19" gradientTransform="translate(-78.51 246.65) scale(1.17 0.08)" xlink:href="#Degradado_sin_nombre_4"/><radialGradient id="Degradado_sin_nombre_4-4" cx="894.66" cy="20.64" r="49.57" xlink:href="#Degradado_sin_nombre_4"/><radialGradient id="Degradado_sin_nombre_4-5" cx="926.13" cy="-2457.55" r="69.19" gradientTransform="translate(60.83 246.65) scale(1.17 0.08)" xlink:href="#Degradado_sin_nombre_4"/><radialGradient id="Degradado_sin_nombre_4-6" cx="992.86" cy="-1939.17" r="69.19" gradientTransform="translate(60.83 246.65) scale(1.17 0.08)" xlink:href="#Degradado_sin_nombre_4"/><radialGradient id="Degradado_sin_nombre_4-7" cx="1371.28" cy="786.18" r="288.45" xlink:href="#Degradado_sin_nombre_4"/><radialGradient id="Degradado_sin_nombre_4-8" cx="-2.15" cy="786.18" r="288.45" xlink:href="#Degradado_sin_nombre_4"/></defs><title>Artboard 1</title><g style="isolation:isolate"><g id="Layer_1" data-name="Layer 1"><rect y="-349" width="1366" height="2247" fill="url(#Degradado_sin_nombre_27)"/><g mask="url(#mask)"><g opacity="0.2" style="mix-blend-mode:overlay"><rect y="7" width="1366" height="767" fill="none" stroke="#fff" stroke-miterlimit="10" stroke-width="0.62"/><line y1="758.96" x2="1366" y2="758.96" fill="none" stroke="#fff" stroke-miterlimit="10" stroke-width="0.62"/><line y1="743.92" x2="1366" y2="743.92" fill="none" stroke="#fff" stroke-miterlimit="10" stroke-width="0.62"/><line y1="728.88" x2="1366" y2="728.88" fill="none" stroke="#fff" stroke-miterlimit="10" stroke-width="0.62"/><line y1="713.84" x2="1366" y2="713.84" fill="none" stroke="#fff" stroke-miterlimit="10" stroke-width="0.62"/><line y1="698.8" x2="1366" y2="698.8" fill="none" stroke="#fff" stroke-miterlimit="10" stroke-width="0.62"/><line y1="683.76" x2="1366" y2="683.76" fill="none" stroke="#fff" stroke-miterlimit="10" stroke-width="0.62"/><line y1="668.73" x2="1366" y2="668.73" fill="none" stroke="#fff" stroke-miterlimit="10" stroke-width="0.62"/><line y1="653.69" x2="1366" y2="653.69" fill="none" stroke="#fff" stroke-miterlimit="10" stroke-width="0.62"/><line y1="638.65" x2="1366" y2="638.65" fill="none" stroke="#fff" stroke-miterlimit="10" stroke-width="0.62"/><line y1="623.61" x2="1366" y2="623.61" fill="none" stroke="#fff" stroke-miterlimit="10" stroke-width="0.62"/><line y1="608.57" x2="1366" y2="608.57" fill="none" stroke="#fff" stroke-miterlimit="10" stroke-width="0.62"/><line y1="593.53" x2="1366" y2="593.53" fill="none" stroke="#fff" stroke-miterlimit="10" stroke-width="0.62"/><line y1="578.49" x2="1366" y2="578.49" fill="none" stroke="#fff" stroke-miterlimit="10" stroke-width="0.62"/><line y1="563.45" x2="1366" y2="563.45" fill="none" stroke="#fff" stroke-miterlimit="10" stroke-width="0.62"/><line y1="548.41" x2="1366" y2="548.41" fill="none" stroke="#fff" stroke-miterlimit="10" stroke-width="0.62"/><line y1="533.37" x2="1366" y2="533.37" fill="none" stroke="#fff" stroke-miterlimit="10" stroke-width="0.62"/><line y1="518.33" x2="1366" y2="518.33" fill="none" stroke="#fff" stroke-miterlimit="10" stroke-width="0.62"/><line y1="503.29" x2="1366" y2="503.29" fill="none" stroke="#fff" stroke-miterlimit="10" stroke-width="0.62"/><line y1="488.25" x2="1366" y2="488.25" fill="none" stroke="#fff" stroke-miterlimit="10" stroke-width="0.62"/><line y1="473.22" x2="1366" y2="473.22" fill="none" stroke="#fff" stroke-miterlimit="10" stroke-width="0.62"/><line y1="458.18" x2="1366" y2="458.18" fill="none" stroke="#fff" stroke-miterlimit="10" stroke-width="0.62"/><line y1="443.14" x2="1366" y2="443.14" fill="none" stroke="#fff" stroke-miterlimit="10" stroke-width="0.62"/><line y1="428.1" x2="1366" y2="428.1" fill="none" stroke="#fff" stroke-miterlimit="10" stroke-width="0.62"/><line y1="413.06" x2="1366" y2="413.06" fill="none" stroke="#fff" stroke-miterlimit="10" stroke-width="0.62"/><line y1="398.02" x2="1366" y2="398.02" fill="none" stroke="#fff" stroke-miterlimit="10" stroke-width="0.62"/><line y1="382.98" x2="1366" y2="382.98" fill="none" stroke="#fff" stroke-miterlimit="10" stroke-width="0.62"/><line y1="367.94" x2="1366" y2="367.94" fill="none" stroke="#fff" stroke-miterlimit="10" stroke-width="0.62"/><line y1="352.9" x2="1366" y2="352.9" fill="none" stroke="#fff" stroke-miterlimit="10" stroke-width="0.62"/><line y1="337.86" x2="1366" y2="337.86" fill="none" stroke="#fff" stroke-miterlimit="10" stroke-width="0.62"/><line y1="322.82" x2="1366" y2="322.82" fill="none" stroke="#fff" stroke-miterlimit="10" stroke-width="0.62"/><line y1="307.78" x2="1366" y2="307.78" fill="none" stroke="#fff" stroke-miterlimit="10" stroke-width="0.62"/><line y1="292.75" x2="1366" y2="292.75" fill="none" stroke="#fff" stroke-miterlimit="10" stroke-width="0.62"/><line y1="277.71" x2="1366" y2="277.71" fill="none" stroke="#fff" stroke-miterlimit="10" stroke-width="0.62"/><line y1="262.67" x2="1366" y2="262.67" fill="none" stroke="#fff" stroke-miterlimit="10" stroke-width="0.62"/><line y1="247.63" x2="1366" y2="247.63" fill="none" stroke="#fff" stroke-miterlimit="10" stroke-width="0.62"/><line y1="232.59" x2="1366" y2="232.59" fill="none" stroke="#fff" stroke-miterlimit="10" stroke-width="0.62"/><line y1="217.55" x2="1366" y2="217.55" fill="none" stroke="#fff" stroke-miterlimit="10" stroke-width="0.62"/><line y1="202.51" x2="1366" y2="202.51" fill="none" stroke="#fff" stroke-miterlimit="10" stroke-width="0.62"/><line y1="187.47" x2="1366" y2="187.47" fill="none" stroke="#fff" stroke-miterlimit="10" stroke-width="0.62"/><line y1="172.43" x2="1366" y2="172.43" fill="none" stroke="#fff" stroke-miterlimit="10" stroke-width="0.62"/><line y1="157.39" x2="1366" y2="157.39" fill="none" stroke="#fff" stroke-miterlimit="10" stroke-width="0.62"/><line y1="142.35" x2="1366" y2="142.35" fill="none" stroke="#fff" stroke-miterlimit="10" stroke-width="0.62"/><line y1="127.31" x2="1366" y2="127.31" fill="none" stroke="#fff" stroke-miterlimit="10" stroke-width="0.62"/><line y1="112.27" x2="1366" y2="112.27" fill="none" stroke="#fff" stroke-miterlimit="10" stroke-width="0.62"/><line y1="97.24" x2="1366" y2="97.24" fill="none" stroke="#fff" stroke-miterlimit="10" stroke-width="0.62"/><line y1="82.2" x2="1366" y2="82.2" fill="none" stroke="#fff" stroke-miterlimit="10" stroke-width="0.62"/><line y1="67.16" x2="1366" y2="67.16" fill="none" stroke="#fff" stroke-miterlimit="10" stroke-width="0.62"/><line y1="52.12" x2="1366" y2="52.12" fill="none" stroke="#fff" stroke-miterlimit="10" stroke-width="0.62"/><line y1="37.08" x2="1366" y2="37.08" fill="none" stroke="#fff" stroke-miterlimit="10" stroke-width="0.62"/><line y1="22.04" x2="1366" y2="22.04" fill="none" stroke="#fff" stroke-miterlimit="10" stroke-width="0.62"/><line x1="1339.22" y1="7" x2="1339.22" y2="774" fill="none" stroke="#fff" stroke-miterlimit="10" stroke-width="0.62"/><line x1="1312.43" y1="7" x2="1312.43" y2="774" fill="none" stroke="#fff" stroke-miterlimit="10" stroke-width="0.62"/><line x1="1285.65" y1="7" x2="1285.65" y2="774" fill="none" stroke="#fff" stroke-miterlimit="10" stroke-width="0.62"/><line x1="1258.86" y1="7" x2="1258.86" y2="774" fill="none" stroke="#fff" stroke-miterlimit="10" stroke-width="0.62"/><line x1="1232.08" y1="7" x2="1232.08" y2="774" fill="none" stroke="#fff" stroke-miterlimit="10" stroke-width="0.62"/><line x1="1205.29" y1="7" x2="1205.29" y2="774" fill="none" stroke="#fff" stroke-miterlimit="10" stroke-width="0.62"/><line x1="1178.51" y1="7" x2="1178.51" y2="774" fill="none" stroke="#fff" stroke-miterlimit="10" stroke-width="0.62"/><line x1="1151.73" y1="7" x2="1151.73" y2="774" fill="none" stroke="#fff" stroke-miterlimit="10" stroke-width="0.62"/><line x1="1124.94" y1="7" x2="1124.94" y2="774" fill="none" stroke="#fff" stroke-miterlimit="10" stroke-width="0.62"/><line x1="1098.16" y1="7" x2="1098.16" y2="774" fill="none" stroke="#fff" stroke-miterlimit="10" stroke-width="0.62"/><line x1="1071.37" y1="7" x2="1071.37" y2="774" fill="none" stroke="#fff" stroke-miterlimit="10" stroke-width="0.62"/><line x1="1044.59" y1="7" x2="1044.59" y2="774" fill="none" stroke="#fff" stroke-miterlimit="10" stroke-width="0.62"/><line x1="1017.8" y1="7" x2="1017.8" y2="774" fill="none" stroke="#fff" stroke-miterlimit="10" stroke-width="0.62"/><line x1="991.02" y1="7" x2="991.02" y2="774" fill="none" stroke="#fff" stroke-miterlimit="10" stroke-width="0.62"/><line x1="964.24" y1="7" x2="964.24" y2="774" fill="none" stroke="#fff" stroke-miterlimit="10" stroke-width="0.62"/><line x1="937.45" y1="7" x2="937.45" y2="774" fill="none" stroke="#fff" stroke-miterlimit="10" stroke-width="0.62"/><line x1="910.67" y1="7" x2="910.67" y2="774" fill="none" stroke="#fff" stroke-miterlimit="10" stroke-width="0.62"/><line x1="883.88" y1="7" x2="883.88" y2="774" fill="none" stroke="#fff" stroke-miterlimit="10" stroke-width="0.62"/><line x1="857.1" y1="7" x2="857.1" y2="774" fill="none" stroke="#fff" stroke-miterlimit="10" stroke-width="0.62"/><line x1="830.31" y1="7" x2="830.31" y2="774" fill="none" stroke="#fff" stroke-miterlimit="10" stroke-width="0.62"/><line x1="803.53" y1="7" x2="803.53" y2="774" fill="none" stroke="#fff" stroke-miterlimit="10" stroke-width="0.62"/><line x1="776.75" y1="7" x2="776.75" y2="774" fill="none" stroke="#fff" stroke-miterlimit="10" stroke-width="0.62"/><line x1="749.96" y1="7" x2="749.96" y2="774" fill="none" stroke="#fff" stroke-miterlimit="10" stroke-width="0.62"/><line x1="723.18" y1="7" x2="723.18" y2="774" fill="none" stroke="#fff" stroke-miterlimit="10" stroke-width="0.62"/><line x1="696.39" y1="7" x2="696.39" y2="774" fill="none" stroke="#fff" stroke-miterlimit="10" stroke-width="0.62"/><line x1="669.61" y1="7" x2="669.61" y2="774" fill="none" stroke="#fff" stroke-miterlimit="10" stroke-width="0.62"/><line x1="642.82" y1="7" x2="642.82" y2="774" fill="none" stroke="#fff" stroke-miterlimit="10" stroke-width="0.62"/><line x1="616.04" y1="7" x2="616.04" y2="774" fill="none" stroke="#fff" stroke-miterlimit="10" stroke-width="0.62"/><line x1="589.25" y1="7" x2="589.25" y2="774" fill="none" stroke="#fff" stroke-miterlimit="10" stroke-width="0.62"/><line x1="562.47" y1="7" x2="562.47" y2="774" fill="none" stroke="#fff" stroke-miterlimit="10" stroke-width="0.62"/><line x1="535.69" y1="7" x2="535.69" y2="774" fill="none" stroke="#fff" stroke-miterlimit="10" stroke-width="0.62"/><line x1="508.9" y1="7" x2="508.9" y2="774" fill="none" stroke="#fff" stroke-miterlimit="10" stroke-width="0.62"/><line x1="482.12" y1="7" x2="482.12" y2="774" fill="none" stroke="#fff" stroke-miterlimit="10" stroke-width="0.62"/><line x1="455.33" y1="7" x2="455.33" y2="774" fill="none" stroke="#fff" stroke-miterlimit="10" stroke-width="0.62"/><line x1="428.55" y1="7" x2="428.55" y2="774" fill="none" stroke="#fff" stroke-miterlimit="10" stroke-width="0.62"/><line x1="401.76" y1="7" x2="401.76" y2="774" fill="none" stroke="#fff" stroke-miterlimit="10" stroke-width="0.62"/><line x1="374.98" y1="7" x2="374.98" y2="774" fill="none" stroke="#fff" stroke-miterlimit="10" stroke-width="0.62"/><line x1="348.2" y1="7" x2="348.2" y2="774" fill="none" stroke="#fff" stroke-miterlimit="10" stroke-width="0.62"/><line x1="321.41" y1="7" x2="321.41" y2="774" fill="none" stroke="#fff" stroke-miterlimit="10" stroke-width="0.62"/><line x1="294.63" y1="7" x2="294.63" y2="774" fill="none" stroke="#fff" stroke-miterlimit="10" stroke-width="0.62"/><line x1="267.84" y1="7" x2="267.84" y2="774" fill="none" stroke="#fff" stroke-miterlimit="10" stroke-width="0.62"/><line x1="241.06" y1="7" x2="241.06" y2="774" fill="none" stroke="#fff" stroke-miterlimit="10" stroke-width="0.62"/><line x1="214.27" y1="7" x2="214.27" y2="774" fill="none" stroke="#fff" stroke-miterlimit="10" stroke-width="0.62"/><line x1="187.49" y1="7" x2="187.49" y2="774" fill="none" stroke="#fff" stroke-miterlimit="10" stroke-width="0.62"/><line x1="160.71" y1="7" x2="160.71" y2="774" fill="none" stroke="#fff" stroke-miterlimit="10" stroke-width="0.62"/><line x1="133.92" y1="7" x2="133.92" y2="774" fill="none" stroke="#fff" stroke-miterlimit="10" stroke-width="0.62"/><line x1="107.14" y1="7" x2="107.14" y2="774" fill="none" stroke="#fff" stroke-miterlimit="10" stroke-width="0.62"/><line x1="80.35" y1="7" x2="80.35" y2="774" fill="none" stroke="#fff" stroke-miterlimit="10" stroke-width="0.62"/><line x1="53.57" y1="7" x2="53.57" y2="774" fill="none" stroke="#fff" stroke-miterlimit="10" stroke-width="0.62"/><line x1="26.78" y1="7" x2="26.78" y2="774" fill="none" stroke="#fff" stroke-miterlimit="10" stroke-width="0.62"/></g></g></g><g id="Layer_2" data-name="Layer 2"><path d="M59.53,736.21a1.45,1.45,0,0,1-1.35-1.53V115.53a1.36,1.36,0,1,1,2.69,0V734.68A1.45,1.45,0,0,1,59.53,736.21Z" fill="#00feff"/><path d="M99.9,117.06H59.53a1.54,1.54,0,0,1,0-3.06H99.9a1.54,1.54,0,0,1,0,3.06Z" fill="#00feff"/><path d="M77.47,136.41H59.53a1.54,1.54,0,0,1,0-3.06H77.47a1.54,1.54,0,0,1,0,3.06Z" fill="#00feff"/><path d="M77.47,155.76H59.53a1.54,1.54,0,0,1,0-3.06H77.47a1.54,1.54,0,0,1,0,3.06Z" fill="#00feff"/><path d="M99.9,175.11H59.53a1.54,1.54,0,0,1,0-3.06H99.9a1.54,1.54,0,0,1,0,3.06Z" fill="#00feff"/><path d="M77.47,194.45H59.53a1.54,1.54,0,0,1,0-3.06H77.47a1.54,1.54,0,0,1,0,3.06Z" fill="#00feff"/><path d="M77.47,213.8H59.53a1.54,1.54,0,0,1,0-3.06H77.47a1.54,1.54,0,0,1,0,3.06Z" fill="#00feff"/><path d="M99.9,233.15H59.53a1.54,1.54,0,0,1,0-3.06H99.9a1.54,1.54,0,0,1,0,3.06Z" fill="#00feff"/><path d="M77.47,252.5H59.53a1.54,1.54,0,0,1,0-3.06H77.47a1.54,1.54,0,0,1,0,3.06Z" fill="#00feff"/><path d="M77.47,271.85H59.53a1.54,1.54,0,0,1,0-3.06H77.47a1.54,1.54,0,0,1,0,3.06Z" fill="#00feff"/><path d="M99.9,291.2H59.53a1.54,1.54,0,0,1,0-3.06H99.9a1.54,1.54,0,0,1,0,3.06Z" fill="#00feff"/><path d="M77.47,310.54H59.53a1.54,1.54,0,0,1,0-3.06H77.47a1.54,1.54,0,0,1,0,3.06Z" fill="#00feff"/><path d="M77.47,329.89H59.53a1.54,1.54,0,0,1,0-3.06H77.47a1.54,1.54,0,0,1,0,3.06Z" fill="#00feff"/><path d="M99.9,349.24H59.53a1.54,1.54,0,0,1,0-3.06H99.9a1.54,1.54,0,0,1,0,3.06Z" fill="#00feff"/><path d="M77.47,368.59H59.53a1.54,1.54,0,0,1,0-3.06H77.47a1.54,1.54,0,0,1,0,3.06Z" fill="#00feff"/><path d="M77.47,387.94H59.53a1.54,1.54,0,0,1,0-3.06H77.47a1.54,1.54,0,0,1,0,3.06Z" fill="#00feff"/><path d="M99.9,407.29H59.53a1.54,1.54,0,0,1,0-3.06H99.9a1.54,1.54,0,0,1,0,3.06Z" fill="#00feff"/><path d="M77.47,426.63H59.53a1.54,1.54,0,0,1,0-3.06H77.47a1.54,1.54,0,0,1,0,3.06Z" fill="#00feff"/><path d="M77.47,446H59.53a1.54,1.54,0,0,1,0-3.06H77.47a1.54,1.54,0,0,1,0,3.06Z" fill="#00feff"/><path d="M99.9,465.33H59.53a1.54,1.54,0,0,1,0-3.06H99.9a1.54,1.54,0,0,1,0,3.06Z" fill="#00feff"/><path d="M77.47,484.68H59.53a1.54,1.54,0,0,1,0-3.06H77.47a1.54,1.54,0,0,1,0,3.06Z" fill="#00feff"/><path d="M77.47,504H59.53a1.54,1.54,0,0,1,0-3.06H77.47a1.54,1.54,0,0,1,0,3.06Z" fill="#00feff"/><path d="M99.9,523.38H59.53a1.54,1.54,0,0,1,0-3.06H99.9a1.54,1.54,0,0,1,0,3.06Z" fill="#00feff"/><path d="M77.47,542.72H59.53a1.54,1.54,0,0,1,0-3.06H77.47a1.54,1.54,0,0,1,0,3.06Z" fill="#00feff"/><path d="M77.47,562.07H59.53a1.54,1.54,0,0,1,0-3.06H77.47a1.54,1.54,0,0,1,0,3.06Z" fill="#00feff"/><path d="M99.9,581.42H59.53a1.54,1.54,0,0,1,0-3.06H99.9a1.54,1.54,0,0,1,0,3.06Z" fill="#00feff"/><path d="M77.47,600.77H59.53a1.54,1.54,0,0,1,0-3.06H77.47a1.54,1.54,0,0,1,0,3.06Z" fill="#00feff"/><path d="M77.47,620.11H59.53a1.54,1.54,0,0,1,0-3.06H77.47a1.54,1.54,0,0,1,0,3.06Z" fill="#00feff"/><path d="M99.9,639.47H59.53a1.54,1.54,0,0,1,0-3.06H99.9a1.54,1.54,0,0,1,0,3.06Z" fill="#00feff"/><path d="M77.47,658.81H59.53a1.54,1.54,0,0,1,0-3.06H77.47a1.54,1.54,0,0,1,0,3.06Z" fill="#00feff"/><path d="M77.47,678.16H59.53a1.54,1.54,0,0,1,0-3.06H77.47a1.54,1.54,0,0,1,0,3.06Z" fill="#00feff"/><path d="M77.47,736.21H59.53a1.54,1.54,0,0,1,0-3.06H77.47a1.54,1.54,0,0,1,0,3.06Z" fill="#00feff"/><path d="M99.9,697.51H59.53a1.54,1.54,0,0,1,0-3.06H99.9a1.54,1.54,0,0,1,0,3.06Z" fill="#00feff"/><rect x="130.4" y="118.59" width="19.73" height="22.44" fill="#00feff" opacity="0.05"/><rect x="130.4" y="153.27" width="19.73" height="22.44" fill="#00feff" opacity="0.1"/><rect x="130.4" y="187.95" width="19.73" height="22.44" fill="#00feff" opacity="0.2"/><rect x="130.4" y="222.64" width="19.73" height="22.44" fill="#00feff" opacity="0.4"/><rect x="130.4" y="257.32" width="19.73" height="22.44" fill="#00feff" opacity="0.6"/><rect x="130.4" y="292" width="19.73" height="22.44" fill="#00feff" opacity="0.8"/><rect x="130.4" y="326.68" width="19.73" height="22.44" fill="#00feff"/><path d="M1310,736.21a1.45,1.45,0,0,1-1.35-1.53V115.53a1.36,1.36,0,1,1,2.69,0V734.68A1.45,1.45,0,0,1,1310,736.21Z" fill="#00feff"/><path d="M1310,117.06h-40.37a1.54,1.54,0,0,1,0-3.06H1310a1.54,1.54,0,0,1,0,3.06Z" fill="#00feff"/><path d="M1310,136.41H1292a1.54,1.54,0,0,1,0-3.06H1310a1.54,1.54,0,0,1,0,3.06Z" fill="#00feff"/><path d="M1310,155.76H1292a1.54,1.54,0,0,1,0-3.06H1310a1.54,1.54,0,0,1,0,3.06Z" fill="#00feff"/><path d="M1310,175.11h-40.37a1.54,1.54,0,0,1,0-3.06H1310a1.54,1.54,0,0,1,0,3.06Z" fill="#00feff"/><path d="M1310,194.45H1292a1.54,1.54,0,0,1,0-3.06H1310a1.54,1.54,0,0,1,0,3.06Z" fill="#00feff"/><path d="M1310,213.8H1292a1.54,1.54,0,0,1,0-3.06H1310a1.54,1.54,0,0,1,0,3.06Z" fill="#00feff"/><path d="M1310,233.15h-40.37a1.54,1.54,0,0,1,0-3.06H1310a1.54,1.54,0,0,1,0,3.06Z" fill="#00feff"/><path d="M1310,252.5H1292a1.54,1.54,0,0,1,0-3.06H1310a1.54,1.54,0,0,1,0,3.06Z" fill="#00feff"/><path d="M1310,271.85H1292a1.54,1.54,0,0,1,0-3.06H1310a1.54,1.54,0,0,1,0,3.06Z" fill="#00feff"/><path d="M1310,291.2h-40.37a1.54,1.54,0,0,1,0-3.06H1310a1.54,1.54,0,0,1,0,3.06Z" fill="#00feff"/><path d="M1310,310.54H1292a1.54,1.54,0,0,1,0-3.06H1310a1.54,1.54,0,0,1,0,3.06Z" fill="#00feff"/><path d="M1310,329.89H1292a1.54,1.54,0,0,1,0-3.06H1310a1.54,1.54,0,0,1,0,3.06Z" fill="#00feff"/><path d="M1310,349.24h-40.37a1.54,1.54,0,0,1,0-3.06H1310a1.54,1.54,0,0,1,0,3.06Z" fill="#00feff"/><path d="M1310,368.59H1292a1.54,1.54,0,0,1,0-3.06H1310a1.54,1.54,0,0,1,0,3.06Z" fill="#00feff"/><path d="M1310,387.94H1292a1.54,1.54,0,0,1,0-3.06H1310a1.54,1.54,0,0,1,0,3.06Z" fill="#00feff"/><path d="M1310,407.29h-40.37a1.54,1.54,0,0,1,0-3.06H1310a1.54,1.54,0,0,1,0,3.06Z" fill="#00feff"/><path d="M1310,426.63H1292a1.54,1.54,0,0,1,0-3.06H1310a1.54,1.54,0,0,1,0,3.06Z" fill="#00feff"/><path d="M1310,446H1292a1.54,1.54,0,0,1,0-3.06H1310a1.54,1.54,0,0,1,0,3.06Z" fill="#00feff"/><path d="M1310,465.33h-40.37a1.54,1.54,0,0,1,0-3.06H1310a1.54,1.54,0,0,1,0,3.06Z" fill="#00feff"/><path d="M1310,484.68H1292a1.54,1.54,0,0,1,0-3.06H1310a1.54,1.54,0,0,1,0,3.06Z" fill="#00feff"/><path d="M1310,504H1292a1.54,1.54,0,0,1,0-3.06H1310a1.54,1.54,0,0,1,0,3.06Z" fill="#00feff"/><path d="M1310,523.38h-40.37a1.54,1.54,0,0,1,0-3.06H1310a1.54,1.54,0,0,1,0,3.06Z" fill="#00feff"/><path d="M1310,542.72H1292a1.54,1.54,0,0,1,0-3.06H1310a1.54,1.54,0,0,1,0,3.06Z" fill="#00feff"/><path d="M1310,562.07H1292a1.54,1.54,0,0,1,0-3.06H1310a1.54,1.54,0,0,1,0,3.06Z" fill="#00feff"/><path d="M1310,581.42h-40.37a1.54,1.54,0,0,1,0-3.06H1310a1.54,1.54,0,0,1,0,3.06Z" fill="#00feff"/><path d="M1310,600.77H1292a1.54,1.54,0,0,1,0-3.06H1310a1.54,1.54,0,0,1,0,3.06Z" fill="#00feff"/><path d="M1310,620.11H1292a1.54,1.54,0,0,1,0-3.06H1310a1.54,1.54,0,0,1,0,3.06Z" fill="#00feff"/><path d="M1310,639.47h-40.37a1.54,1.54,0,0,1,0-3.06H1310a1.54,1.54,0,0,1,0,3.06Z" fill="#00feff"/><path d="M1310,658.81H1292a1.54,1.54,0,0,1,0-3.06H1310a1.54,1.54,0,0,1,0,3.06Z" fill="#00feff"/><path d="M1310,678.16H1292a1.54,1.54,0,0,1,0-3.06H1310a1.54,1.54,0,0,1,0,3.06Z" fill="#00feff"/><path d="M1310,736.21H1292a1.54,1.54,0,0,1,0-3.06H1310a1.54,1.54,0,0,1,0,3.06Z" fill="#00feff"/><path d="M1310,697.51h-40.37a1.54,1.54,0,0,1,0-3.06H1310a1.54,1.54,0,0,1,0,3.06Z" fill="#00feff"/><rect x="1218.93" y="118.59" width="19.73" height="22.44" fill="#00feff" opacity="0.05"/><rect x="1218.93" y="153.27" width="19.73" height="22.44" fill="#00feff" opacity="0.1"/><rect x="1218.93" y="187.95" width="19.73" height="22.44" fill="#00feff" opacity="0.2"/><rect x="1218.93" y="222.64" width="19.73" height="22.44" fill="#00feff" opacity="0.4"/><rect x="1218.93" y="257.32" width="19.73" height="22.44" fill="#00feff" opacity="0.6"/><rect x="1218.93" y="292" width="19.73" height="22.44" fill="#00feff" opacity="0.8"/><rect x="1218.93" y="326.68" width="19.73" height="22.44" fill="#00feff"/><circle cx="63.57" cy="51.59" r="7.4" fill="#00feff"/><circle cx="471.94" cy="19.97" r="7.4" fill="#00feff"/><polygon points="326.5 52.94 59.53 52.94 59.53 50.24 325.39 50.24 357.68 17.95 471.26 17.95 471.26 20.64 358.8 20.64 326.5 52.94" fill="#00feff"/><g opacity="0.6"><circle cx="63.57" cy="93.3" r="7.4" fill="#00feff"/><rect x="59.53" y="91.96" width="266.42" height="2.69" fill="#00feff"/></g><circle cx="473.06" cy="20.64" r="54.94" fill="url(#Degradado_sin_nombre_4)" style="mix-blend-mode:color-dodge"/><ellipse cx="185.11" cy="51.03" rx="89.7" ry="6.1" fill="url(#Degradado_sin_nombre_4-2)" style="mix-blend-mode:color-dodge"/><ellipse cx="263.15" cy="92.29" rx="89.7" ry="6.1" fill="url(#Degradado_sin_nombre_4-3)" style="mix-blend-mode:color-dodge"/><circle cx="1304.6" cy="51.59" r="7.4" fill="#00feff"/><circle cx="896.23" cy="19.97" r="7.4" fill="#00feff"/><polygon points="1308.64 52.94 1041.66 52.94 1009.37 20.64 896.9 20.64 896.9 17.95 1010.49 17.95 1042.78 50.24 1308.64 50.24 1308.64 52.94" fill="#00feff"/><g opacity="0.5"><circle cx="1304.6" cy="93.3" r="7.4" fill="#00feff"/><rect x="1042.22" y="91.96" width="266.42" height="2.69" fill="#00feff"/></g><circle cx="894.66" cy="20.64" r="54.94" fill="url(#Degradado_sin_nombre_4-4)" style="mix-blend-mode:color-dodge"/><ellipse cx="1144.03" cy="51.03" rx="89.7" ry="6.1" fill="url(#Degradado_sin_nombre_4-5)" style="mix-blend-mode:color-dodge"/><ellipse cx="1222.07" cy="92.29" rx="89.7" ry="6.1" fill="url(#Degradado_sin_nombre_4-6)" style="mix-blend-mode:color-dodge"/></g><g id="Layer_3" data-name="Layer 3"><circle cx="1371.28" cy="786.18" r="319.72" fill="url(#Degradado_sin_nombre_4-7)" style="mix-blend-mode:color-dodge"/><circle cx="-2.15" cy="786.18" r="319.72" fill="url(#Degradado_sin_nombre_4-8)" style="mix-blend-mode:color-dodge"/></g></g></svg>