<svg id="Layer_1" data-name="Layer 1" xmlns="http://www.w3.org/2000/svg" viewBox="0 0 91 1310"><title>Artboard 1</title><path d="M88.3,1310.21a3,3,0,0,1-2.83-3.22V3.22a2.86,2.86,0,1,1,5.67,0V1307A3,3,0,0,1,88.3,1310.21Z" fill="#00feff"/><path d="M88.3,6.44H3.3A3,3,0,0,1,.47,3.22,3,3,0,0,1,3.3,0h85a3,3,0,0,1,2.83,3.22A3,3,0,0,1,88.3,6.44Z" fill="#00feff"/><path d="M88.3,47.19H50.52a3.25,3.25,0,0,1,0-6.44H88.3a3.25,3.25,0,0,1,0,6.44Z" fill="#00feff"/><path d="M88.3,87.93H50.52a3.25,3.25,0,0,1,0-6.44H88.3a3.25,3.25,0,0,1,0,6.44Z" fill="#00feff"/><path d="M88.3,128.67H3.3a3.25,3.25,0,0,1,0-6.44h85a3.25,3.25,0,0,1,0,6.44Z" fill="#00feff"/><path d="M88.3,169.42H50.52a3.25,3.25,0,0,1,0-6.44H88.3a3.25,3.25,0,0,1,0,6.44Z" fill="#00feff"/><path d="M88.3,210.16H50.52a3.25,3.25,0,0,1,0-6.44H88.3a3.25,3.25,0,0,1,0,6.44Z" fill="#00feff"/><path d="M88.3,250.9H3.3a3.25,3.25,0,0,1,0-6.44h85a3.25,3.25,0,0,1,0,6.44Z" fill="#00feff"/><path d="M88.3,291.64H50.52a3.25,3.25,0,0,1,0-6.44H88.3a3.25,3.25,0,0,1,0,6.44Z" fill="#00feff"/><path d="M88.3,332.38H50.52a3.25,3.25,0,0,1,0-6.44H88.3a3.25,3.25,0,0,1,0,6.44Z" fill="#00feff"/><path d="M88.3,373.13H3.3a3.25,3.25,0,0,1,0-6.44h85a3.25,3.25,0,0,1,0,6.44Z" fill="#00feff"/><path d="M88.3,413.87H50.52a3.25,3.25,0,0,1,0-6.44H88.3a3.25,3.25,0,0,1,0,6.44Z" fill="#00feff"/><path d="M88.3,454.61H50.52a3.25,3.25,0,0,1,0-6.44H88.3a3.25,3.25,0,0,1,0,6.44Z" fill="#00feff"/><path d="M88.3,495.36H3.3a3.25,3.25,0,0,1,0-6.44h85a3.25,3.25,0,0,1,0,6.44Z" fill="#00feff"/><path d="M88.3,536.1H50.52a3.25,3.25,0,0,1,0-6.44H88.3a3.25,3.25,0,0,1,0,6.44Z" fill="#00feff"/><path d="M88.3,576.84H50.52a3.25,3.25,0,0,1,0-6.44H88.3a3.25,3.25,0,0,1,0,6.44Z" fill="#00feff"/><path d="M88.3,617.58H3.3a3.25,3.25,0,0,1,0-6.44h85a3.25,3.25,0,0,1,0,6.44Z" fill="#00feff"/><path d="M88.3,658.32H50.52a3.25,3.25,0,0,1,0-6.44H88.3a3.25,3.25,0,0,1,0,6.44Z" fill="#00feff"/><path d="M88.3,699.07H50.52a3.25,3.25,0,0,1,0-6.44H88.3a3.25,3.25,0,0,1,0,6.44Z" fill="#00feff"/><path d="M88.3,739.81H3.3a3.25,3.25,0,0,1,0-6.44h85a3.25,3.25,0,0,1,0,6.44Z" fill="#00feff"/><path d="M88.3,780.55H50.52a3.25,3.25,0,0,1,0-6.44H88.3a3.25,3.25,0,0,1,0,6.44Z" fill="#00feff"/><path d="M88.3,821.29H50.52a3.25,3.25,0,0,1,0-6.44H88.3a3.25,3.25,0,0,1,0,6.44Z" fill="#00feff"/><path d="M88.3,862H3.3a3.25,3.25,0,0,1,0-6.44h85a3.25,3.25,0,0,1,0,6.44Z" fill="#00feff"/><path d="M88.3,902.78H50.52a3.25,3.25,0,0,1,0-6.44H88.3a3.25,3.25,0,0,1,0,6.44Z" fill="#00feff"/><path d="M88.3,943.52H50.52a3.25,3.25,0,0,1,0-6.44H88.3a3.25,3.25,0,0,1,0,6.44Z" fill="#00feff"/><path d="M88.3,984.27H3.3a3.25,3.25,0,0,1,0-6.44h85a3.25,3.25,0,0,1,0,6.44Z" fill="#00feff"/><path d="M88.3,1025H50.52a3.25,3.25,0,0,1,0-6.44H88.3a3.25,3.25,0,0,1,0,6.44Z" fill="#00feff"/><path d="M88.3,1065.75H50.52a3.25,3.25,0,0,1,0-6.44H88.3a3.25,3.25,0,0,1,0,6.44Z" fill="#00feff"/><path d="M88.3,1106.5H3.3a3.25,3.25,0,0,1,0-6.44h85a3.25,3.25,0,0,1,0,6.44Z" fill="#00feff"/><path d="M88.3,1147.24H50.52a3.25,3.25,0,0,1,0-6.44H88.3a3.25,3.25,0,0,1,0,6.44Z" fill="#00feff"/><path d="M88.3,1188H50.52a3.25,3.25,0,0,1,0-6.44H88.3a3.25,3.25,0,0,1,0,6.44Z" fill="#00feff"/><path d="M88.3,1310.21H50.52a3.25,3.25,0,0,1,0-6.44H88.3a3.25,3.25,0,0,1,0,6.44Z" fill="#00feff"/><path d="M88.3,1228.72H3.3a3.25,3.25,0,0,1,0-6.44h85a3.25,3.25,0,0,1,0,6.44Z" fill="#00feff"/></svg>